<svg width="711" height="130" viewBox="0 0 711 130" fill="none" xmlns="http://www.w3.org/2000/svg">
<path d="M63.3729 130L0 65.5L63.3729 0.999993H153V130H63.3729Z" fill="#FFC5C5"/>
<path d="M557 129V0H711L649.4 64.5L711 129H557Z" fill="#FFC5C5"/>
<rect x="153" width="404" height="129" fill="#FFC5C5"/>
<path d="M127.006 52.8182L133.334 72.7102H133.577L139.918 52.8182H146.054L137.028 79H129.895L120.857 52.8182H127.006ZM152.523 79.3707C151.27 79.3707 150.153 79.1534 149.173 78.7188C148.193 78.2756 147.418 77.6236 146.847 76.7628C146.284 75.8935 146.003 74.8111 146.003 73.5156C146.003 72.4247 146.203 71.5085 146.604 70.767C147.004 70.0256 147.55 69.429 148.24 68.9773C148.93 68.5256 149.714 68.1847 150.592 67.9545C151.479 67.7244 152.408 67.5625 153.379 67.4688C154.521 67.3494 155.442 67.2386 156.141 67.1364C156.839 67.0256 157.347 66.8636 157.662 66.6506C157.977 66.4375 158.135 66.1222 158.135 65.7045V65.6278C158.135 64.8182 157.879 64.1918 157.368 63.7486C156.865 63.3054 156.149 63.0838 155.22 63.0838C154.24 63.0838 153.46 63.3011 152.881 63.7358C152.301 64.1619 151.918 64.6989 151.73 65.3466L146.693 64.9375C146.949 63.7443 147.452 62.7131 148.202 61.8438C148.952 60.9659 149.919 60.2926 151.104 59.8239C152.297 59.3466 153.678 59.108 155.246 59.108C156.337 59.108 157.381 59.2358 158.378 59.4915C159.384 59.7472 160.274 60.1435 161.05 60.6804C161.834 61.2173 162.452 61.9077 162.903 62.7514C163.355 63.5866 163.581 64.5881 163.581 65.7557V79H158.416V76.277H158.263C157.947 76.8906 157.526 77.4318 156.997 77.9006C156.469 78.3608 155.834 78.723 155.092 78.9872C154.351 79.2429 153.494 79.3707 152.523 79.3707ZM154.082 75.6122C154.884 75.6122 155.591 75.4545 156.205 75.1392C156.818 74.8153 157.3 74.3807 157.649 73.8352C157.999 73.2898 158.173 72.6719 158.173 71.9815V69.8977C158.003 70.0085 157.768 70.1108 157.47 70.2045C157.18 70.2898 156.852 70.3707 156.486 70.4474C156.119 70.5156 155.753 70.5795 155.386 70.6392C155.02 70.6903 154.688 70.7372 154.389 70.7798C153.75 70.8736 153.192 71.0227 152.714 71.2273C152.237 71.4318 151.866 71.7088 151.602 72.0582C151.338 72.3991 151.206 72.8253 151.206 73.3366C151.206 74.0781 151.474 74.6449 152.011 75.0369C152.557 75.4205 153.247 75.6122 154.082 75.6122ZM173.252 52.8182V79H167.806V52.8182H173.252ZM177.615 79V59.3636H183.061V79H177.615ZM180.35 56.8324C179.541 56.8324 178.846 56.5639 178.267 56.027C177.696 55.4815 177.41 54.8295 177.41 54.071C177.41 53.321 177.696 52.6776 178.267 52.1406C178.846 51.5952 179.541 51.3224 180.35 51.3224C181.16 51.3224 181.85 51.5952 182.422 52.1406C183.001 52.6776 183.291 53.321 183.291 54.071C183.291 54.8295 183.001 55.4815 182.422 56.027C181.85 56.5639 181.16 56.8324 180.35 56.8324ZM194.659 79.3196C193.168 79.3196 191.817 78.9361 190.607 78.169C189.405 77.3935 188.45 76.2557 187.743 74.7557C187.044 73.2472 186.695 71.3977 186.695 69.2074C186.695 66.9574 187.057 65.0866 187.781 63.5952C188.506 62.0952 189.469 60.9744 190.67 60.233C191.881 59.483 193.206 59.108 194.646 59.108C195.746 59.108 196.662 59.2955 197.395 59.6705C198.136 60.0369 198.733 60.4972 199.185 61.0511C199.645 61.5966 199.994 62.1335 200.233 62.6619H200.399V52.8182H205.832V79H200.463V75.8551H200.233C199.977 76.4006 199.615 76.9418 199.146 77.4787C198.686 78.0071 198.085 78.446 197.344 78.7955C196.611 79.1449 195.716 79.3196 194.659 79.3196ZM196.385 74.9858C197.263 74.9858 198.004 74.7472 198.609 74.2699C199.223 73.7841 199.692 73.1065 200.016 72.2372C200.348 71.3679 200.514 70.3494 200.514 69.1818C200.514 68.0142 200.352 67 200.028 66.1392C199.705 65.2784 199.236 64.6136 198.622 64.1449C198.009 63.6761 197.263 63.4418 196.385 63.4418C195.49 63.4418 194.736 63.6847 194.122 64.1705C193.509 64.6562 193.044 65.3295 192.729 66.1903C192.413 67.0511 192.256 68.0483 192.256 69.1818C192.256 70.3239 192.413 71.3338 192.729 72.2116C193.053 73.081 193.517 73.7628 194.122 74.2571C194.736 74.7429 195.49 74.9858 196.385 74.9858ZM215.909 79.3707C214.657 79.3707 213.54 79.1534 212.56 78.7188C211.58 78.2756 210.804 77.6236 210.233 76.7628C209.671 75.8935 209.39 74.8111 209.39 73.5156C209.39 72.4247 209.59 71.5085 209.99 70.767C210.391 70.0256 210.936 69.429 211.627 68.9773C212.317 68.5256 213.101 68.1847 213.979 67.9545C214.865 67.7244 215.794 67.5625 216.766 67.4688C217.908 67.3494 218.828 67.2386 219.527 67.1364C220.226 67.0256 220.733 66.8636 221.049 66.6506C221.364 66.4375 221.522 66.1222 221.522 65.7045V65.6278C221.522 64.8182 221.266 64.1918 220.755 63.7486C220.252 63.3054 219.536 63.0838 218.607 63.0838C217.627 63.0838 216.847 63.3011 216.267 63.7358C215.688 64.1619 215.304 64.6989 215.117 65.3466L210.08 64.9375C210.336 63.7443 210.838 62.7131 211.588 61.8438C212.338 60.9659 213.306 60.2926 214.49 59.8239C215.684 59.3466 217.064 59.108 218.632 59.108C219.723 59.108 220.767 59.2358 221.765 59.4915C222.77 59.7472 223.661 60.1435 224.436 60.6804C225.221 61.2173 225.838 61.9077 226.29 62.7514C226.742 63.5866 226.968 64.5881 226.968 65.7557V79H221.803V76.277H221.65C221.334 76.8906 220.912 77.4318 220.384 77.9006C219.855 78.3608 219.221 78.723 218.479 78.9872C217.738 79.2429 216.881 79.3707 215.909 79.3707ZM217.469 75.6122C218.27 75.6122 218.978 75.4545 219.591 75.1392C220.205 74.8153 220.686 74.3807 221.036 73.8352C221.385 73.2898 221.56 72.6719 221.56 71.9815V69.8977C221.39 70.0085 221.155 70.1108 220.857 70.2045C220.567 70.2898 220.239 70.3707 219.873 70.4474C219.506 70.5156 219.14 70.5795 218.773 70.6392C218.407 70.6903 218.074 70.7372 217.776 70.7798C217.137 70.8736 216.578 71.0227 216.101 71.2273C215.624 71.4318 215.253 71.7088 214.989 72.0582C214.725 72.3991 214.593 72.8253 214.593 73.3366C214.593 74.0781 214.861 74.6449 215.398 75.0369C215.944 75.4205 216.634 75.6122 217.469 75.6122ZM247.531 64.9631L242.545 65.2699C242.46 64.8437 242.277 64.4602 241.995 64.1193C241.714 63.7699 241.343 63.4929 240.883 63.2884C240.431 63.0753 239.89 62.9688 239.26 62.9688C238.416 62.9688 237.704 63.1477 237.125 63.5057C236.545 63.8551 236.255 64.3239 236.255 64.9119C236.255 65.3807 236.443 65.777 236.818 66.1009C237.193 66.4247 237.836 66.6847 238.748 66.8807L242.302 67.5966C244.211 67.9886 245.635 68.6193 246.572 69.4886C247.51 70.358 247.978 71.5 247.978 72.9148C247.978 74.2017 247.599 75.331 246.841 76.3026C246.091 77.2741 245.059 78.0327 243.747 78.5781C242.443 79.1151 240.939 79.3835 239.234 79.3835C236.635 79.3835 234.564 78.8423 233.021 77.7599C231.487 76.669 230.588 75.1861 230.324 73.3111L235.68 73.0298C235.842 73.8224 236.234 74.4276 236.856 74.8452C237.478 75.2543 238.275 75.4588 239.247 75.4588C240.201 75.4588 240.968 75.2756 241.548 74.9091C242.136 74.5341 242.434 74.0526 242.443 73.4645C242.434 72.9702 242.225 72.5653 241.816 72.25C241.407 71.9261 240.777 71.679 239.924 71.5085L236.524 70.831C234.606 70.4474 233.179 69.7827 232.241 68.8366C231.312 67.8906 230.848 66.6847 230.848 65.2188C230.848 63.9574 231.189 62.8707 231.87 61.9588C232.561 61.0469 233.528 60.3438 234.772 59.8494C236.025 59.3551 237.491 59.108 239.17 59.108C241.65 59.108 243.602 59.6321 245.025 60.6804C246.457 61.7287 247.292 63.1562 247.531 64.9631ZM251.408 79V59.3636H256.854V79H251.408ZM254.143 56.8324C253.334 56.8324 252.639 56.5639 252.06 56.027C251.489 55.4815 251.203 54.8295 251.203 54.071C251.203 53.321 251.489 52.6776 252.06 52.1406C252.639 51.5952 253.334 51.3224 254.143 51.3224C254.953 51.3224 255.643 51.5952 256.214 52.1406C256.794 52.6776 257.084 53.321 257.084 54.071C257.084 54.8295 256.794 55.4815 256.214 56.027C255.643 56.5639 254.953 56.8324 254.143 56.8324ZM274.483 73.3494L274.496 66.8168H275.288L281.578 59.3636H287.83L279.379 69.233H278.088L274.483 73.3494ZM269.548 79V52.8182H274.994V79H269.548ZM281.821 79L276.043 70.4474L279.673 66.5994L288.2 79H281.821ZM298.642 79.3835C296.622 79.3835 294.883 78.9744 293.426 78.1562C291.977 77.3295 290.86 76.1619 290.076 74.6534C289.292 73.1364 288.9 71.3423 288.9 69.2713C288.9 67.2514 289.292 65.4787 290.076 63.9531C290.86 62.4276 291.964 61.2386 293.387 60.3864C294.819 59.5341 296.498 59.108 298.424 59.108C299.72 59.108 300.926 59.3168 302.042 59.7344C303.167 60.1435 304.147 60.7614 304.983 61.5881C305.826 62.4148 306.483 63.4545 306.951 64.7074C307.42 65.9517 307.654 67.4091 307.654 69.0795V70.5753H291.074V67.2003H302.528C302.528 66.4162 302.358 65.7216 302.017 65.1165C301.676 64.5114 301.203 64.0384 300.598 63.6974C300.001 63.348 299.306 63.1733 298.514 63.1733C297.687 63.1733 296.954 63.3651 296.315 63.7486C295.684 64.1236 295.19 64.6307 294.832 65.2699C294.474 65.9006 294.291 66.6037 294.282 67.3793V70.5881C294.282 71.5597 294.461 72.3991 294.819 73.1065C295.186 73.8139 295.701 74.3594 296.366 74.7429C297.031 75.1264 297.819 75.3182 298.731 75.3182C299.336 75.3182 299.89 75.233 300.393 75.0625C300.896 74.892 301.326 74.6364 301.684 74.2955C302.042 73.9545 302.315 73.5369 302.502 73.0426L307.539 73.375C307.284 74.5852 306.76 75.642 305.967 76.5455C305.183 77.4403 304.169 78.1392 302.924 78.642C301.689 79.1364 300.261 79.3835 298.642 79.3835ZM311.208 79V59.3636H316.399V62.8281H316.629C317.038 61.6776 317.72 60.7699 318.674 60.1051C319.629 59.4403 320.771 59.108 322.1 59.108C323.447 59.108 324.593 59.4446 325.539 60.1179C326.485 60.7827 327.116 61.6861 327.431 62.8281H327.636C328.037 61.7031 328.761 60.804 329.809 60.1307C330.866 59.4489 332.115 59.108 333.555 59.108C335.387 59.108 336.875 59.6918 338.017 60.8594C339.167 62.0185 339.743 63.6634 339.743 65.794V79H334.309V66.8679C334.309 65.777 334.02 64.9588 333.44 64.4134C332.86 63.8679 332.136 63.5952 331.267 63.5952C330.278 63.5952 329.507 63.9105 328.953 64.5412C328.399 65.1634 328.122 65.9858 328.122 67.0085V79H322.842V66.7528C322.842 65.7898 322.565 65.0227 322.011 64.4517C321.466 63.8807 320.745 63.5952 319.85 63.5952C319.245 63.5952 318.7 63.7486 318.214 64.0554C317.737 64.3537 317.358 64.7756 317.076 65.321C316.795 65.858 316.654 66.4886 316.654 67.2131V79H311.208ZM344.147 79V52.8182H349.593V62.6619H349.759C349.998 62.1335 350.343 61.5966 350.794 61.0511C351.255 60.4972 351.851 60.0369 352.584 59.6705C353.326 59.2955 354.246 59.108 355.346 59.108C356.777 59.108 358.098 59.483 359.309 60.233C360.519 60.9744 361.486 62.0952 362.211 63.5952C362.935 65.0866 363.297 66.9574 363.297 69.2074C363.297 71.3977 362.944 73.2472 362.236 74.7557C361.537 76.2557 360.583 77.3935 359.373 78.169C358.171 78.9361 356.824 79.3196 355.333 79.3196C354.276 79.3196 353.377 79.1449 352.635 78.7955C351.902 78.446 351.301 78.0071 350.833 77.4787C350.364 76.9418 350.006 76.4006 349.759 75.8551H349.516V79H344.147ZM349.478 69.1818C349.478 70.3494 349.64 71.3679 349.963 72.2372C350.287 73.1065 350.756 73.7841 351.37 74.2699C351.983 74.7472 352.729 74.9858 353.607 74.9858C354.493 74.9858 355.243 74.7429 355.857 74.2571C356.471 73.7628 356.935 73.081 357.25 72.2116C357.574 71.3338 357.736 70.3239 357.736 69.1818C357.736 68.0483 357.578 67.0511 357.263 66.1903C356.948 65.3295 356.483 64.6562 355.87 64.1705C355.256 63.6847 354.502 63.4418 353.607 63.4418C352.721 63.4418 351.971 63.6761 351.357 64.1449C350.752 64.6136 350.287 65.2784 349.963 66.1392C349.64 67 349.478 68.0142 349.478 69.1818ZM372.531 79.3707C371.278 79.3707 370.161 79.1534 369.181 78.7188C368.201 78.2756 367.425 77.6236 366.854 76.7628C366.292 75.8935 366.011 74.8111 366.011 73.5156C366.011 72.4247 366.211 71.5085 366.612 70.767C367.012 70.0256 367.558 69.429 368.248 68.9773C368.938 68.5256 369.722 68.1847 370.6 67.9545C371.487 67.7244 372.415 67.5625 373.387 67.4688C374.529 67.3494 375.45 67.2386 376.148 67.1364C376.847 67.0256 377.354 66.8636 377.67 66.6506C377.985 66.4375 378.143 66.1222 378.143 65.7045V65.6278C378.143 64.8182 377.887 64.1918 377.376 63.7486C376.873 63.3054 376.157 63.0838 375.228 63.0838C374.248 63.0838 373.468 63.3011 372.888 63.7358C372.309 64.1619 371.925 64.6989 371.738 65.3466L366.701 64.9375C366.957 63.7443 367.46 62.7131 368.21 61.8438C368.96 60.9659 369.927 60.2926 371.112 59.8239C372.305 59.3466 373.685 59.108 375.254 59.108C376.344 59.108 377.388 59.2358 378.386 59.4915C379.391 59.7472 380.282 60.1435 381.058 60.6804C381.842 61.2173 382.46 61.9077 382.911 62.7514C383.363 63.5866 383.589 64.5881 383.589 65.7557V79H378.424V76.277H378.271C377.955 76.8906 377.533 77.4318 377.005 77.9006C376.477 78.3608 375.842 78.723 375.1 78.9872C374.359 79.2429 373.502 79.3707 372.531 79.3707ZM374.09 75.6122C374.891 75.6122 375.599 75.4545 376.212 75.1392C376.826 74.8153 377.308 74.3807 377.657 73.8352C378.006 73.2898 378.181 72.6719 378.181 71.9815V69.8977C378.011 70.0085 377.776 70.1108 377.478 70.2045C377.188 70.2898 376.86 70.3707 376.494 70.4474C376.127 70.5156 375.761 70.5795 375.394 70.6392C375.028 70.6903 374.695 70.7372 374.397 70.7798C373.758 70.8736 373.2 71.0227 372.722 71.2273C372.245 71.4318 371.874 71.7088 371.61 72.0582C371.346 72.3991 371.214 72.8253 371.214 73.3366C371.214 74.0781 371.482 74.6449 372.019 75.0369C372.565 75.4205 373.255 75.6122 374.09 75.6122ZM393.26 52.8182V79H387.814V52.8182H393.26ZM397.623 79V59.3636H403.069V79H397.623ZM400.358 56.8324C399.549 56.8324 398.854 56.5639 398.275 56.027C397.703 55.4815 397.418 54.8295 397.418 54.071C397.418 53.321 397.703 52.6776 398.275 52.1406C398.854 51.5952 399.549 51.3224 400.358 51.3224C401.168 51.3224 401.858 51.5952 402.429 52.1406C403.009 52.6776 403.299 53.321 403.299 54.071C403.299 54.8295 403.009 55.4815 402.429 56.027C401.858 56.5639 401.168 56.8324 400.358 56.8324ZM415.763 86.3636V59.3636H421.132V62.6619H421.375C421.614 62.1335 421.959 61.5966 422.411 61.0511C422.871 60.4972 423.468 60.0369 424.201 59.6705C424.942 59.2955 425.863 59.108 426.962 59.108C428.394 59.108 429.715 59.483 430.925 60.233C432.135 60.9744 433.103 62.0952 433.827 63.5952C434.551 65.0866 434.914 66.9574 434.914 69.2074C434.914 71.3977 434.56 73.2472 433.853 74.7557C433.154 76.2557 432.199 77.3935 430.989 78.169C429.787 78.9361 428.441 79.3196 426.949 79.3196C425.892 79.3196 424.993 79.1449 424.252 78.7955C423.519 78.446 422.918 78.0071 422.449 77.4787C421.98 76.9418 421.623 76.4006 421.375 75.8551H421.209V86.3636H415.763ZM421.094 69.1818C421.094 70.3494 421.256 71.3679 421.58 72.2372C421.904 73.1065 422.373 73.7841 422.986 74.2699C423.6 74.7472 424.346 74.9858 425.223 74.9858C426.11 74.9858 426.86 74.7429 427.473 74.2571C428.087 73.7628 428.551 73.081 428.867 72.2116C429.191 71.3338 429.353 70.3239 429.353 69.1818C429.353 68.0483 429.195 67.0511 428.88 66.1903C428.564 65.3295 428.1 64.6562 427.486 64.1705C426.873 63.6847 426.118 63.4418 425.223 63.4418C424.337 63.4418 423.587 63.6761 422.973 64.1449C422.368 64.6136 421.904 65.2784 421.58 66.1392C421.256 67 421.094 68.0142 421.094 69.1818ZM438.544 79V59.3636H443.99V79H438.544ZM441.28 56.8324C440.471 56.8324 439.776 56.5639 439.196 56.027C438.625 55.4815 438.34 54.8295 438.34 54.071C438.34 53.321 438.625 52.6776 439.196 52.1406C439.776 51.5952 440.471 51.3224 441.28 51.3224C442.09 51.3224 442.78 51.5952 443.351 52.1406C443.931 52.6776 444.221 53.321 444.221 54.071C444.221 54.8295 443.931 55.4815 443.351 56.027C442.78 56.5639 442.09 56.8324 441.28 56.8324ZM453.799 52.8182V79H448.353V52.8182H453.799ZM458.162 79V59.3636H463.608V79H458.162ZM460.897 56.8324C460.088 56.8324 459.393 56.5639 458.814 56.027C458.243 55.4815 457.957 54.8295 457.957 54.071C457.957 53.321 458.243 52.6776 458.814 52.1406C459.393 51.5952 460.088 51.3224 460.897 51.3224C461.707 51.3224 462.397 51.5952 462.968 52.1406C463.548 52.6776 463.838 53.321 463.838 54.071C463.838 54.8295 463.548 55.4815 462.968 56.027C462.397 56.5639 461.707 56.8324 460.897 56.8324ZM473.416 67.6477V79H467.97V52.8182H473.263V62.8281H473.493C473.936 61.669 474.652 60.7614 475.641 60.1051C476.629 59.4403 477.869 59.108 479.361 59.108C480.724 59.108 481.913 59.4062 482.928 60.0028C483.95 60.5909 484.743 61.4389 485.305 62.5469C485.876 63.6463 486.158 64.9631 486.149 66.4972V79H480.703V67.4688C480.712 66.2585 480.405 65.3168 479.783 64.6435C479.169 63.9702 478.308 63.6335 477.2 63.6335C476.459 63.6335 475.803 63.7912 475.232 64.1065C474.669 64.4219 474.226 64.8821 473.902 65.4872C473.587 66.0838 473.425 66.804 473.416 67.6477ZM496.034 79.3707C494.782 79.3707 493.665 79.1534 492.685 78.7188C491.705 78.2756 490.929 77.6236 490.358 76.7628C489.796 75.8935 489.515 74.8111 489.515 73.5156C489.515 72.4247 489.715 71.5085 490.115 70.767C490.516 70.0256 491.061 69.429 491.752 68.9773C492.442 68.5256 493.226 68.1847 494.104 67.9545C494.99 67.7244 495.919 67.5625 496.891 67.4688C498.033 67.3494 498.953 67.2386 499.652 67.1364C500.351 67.0256 500.858 66.8636 501.174 66.6506C501.489 66.4375 501.647 66.1222 501.647 65.7045V65.6278C501.647 64.8182 501.391 64.1918 500.88 63.7486C500.377 63.3054 499.661 63.0838 498.732 63.0838C497.752 63.0838 496.972 63.3011 496.392 63.7358C495.813 64.1619 495.429 64.6989 495.242 65.3466L490.205 64.9375C490.461 63.7443 490.963 62.7131 491.713 61.8438C492.463 60.9659 493.431 60.2926 494.615 59.8239C495.809 59.3466 497.189 59.108 498.757 59.108C499.848 59.108 500.892 59.2358 501.89 59.4915C502.895 59.7472 503.786 60.1435 504.561 60.6804C505.346 61.2173 505.963 61.9077 506.415 62.7514C506.867 63.5866 507.093 64.5881 507.093 65.7557V79H501.928V76.277H501.775C501.459 76.8906 501.037 77.4318 500.509 77.9006C499.98 78.3608 499.346 78.723 498.604 78.9872C497.863 79.2429 497.006 79.3707 496.034 79.3707ZM497.594 75.6122C498.395 75.6122 499.103 75.4545 499.716 75.1392C500.33 74.8153 500.811 74.3807 501.161 73.8352C501.51 73.2898 501.685 72.6719 501.685 71.9815V69.8977C501.515 70.0085 501.28 70.1108 500.982 70.2045C500.692 70.2898 500.364 70.3707 499.998 70.4474C499.631 70.5156 499.265 70.5795 498.898 70.6392C498.532 70.6903 498.199 70.7372 497.901 70.7798C497.262 70.8736 496.703 71.0227 496.226 71.2273C495.749 71.4318 495.378 71.7088 495.114 72.0582C494.85 72.3991 494.718 72.8253 494.718 73.3366C494.718 74.0781 494.986 74.6449 495.523 75.0369C496.069 75.4205 496.759 75.6122 497.594 75.6122ZM516.764 67.6477V79H511.318V59.3636H516.508V62.8281H516.738C517.173 61.6861 517.902 60.7827 518.924 60.1179C519.947 59.4446 521.187 59.108 522.645 59.108C524.008 59.108 525.197 59.4062 526.211 60.0028C527.225 60.5994 528.014 61.4517 528.576 62.5597C529.139 63.6591 529.42 64.9716 529.42 66.4972V79H523.974V67.4688C523.983 66.267 523.676 65.3295 523.054 64.6562C522.431 63.9744 521.575 63.6335 520.484 63.6335C519.751 63.6335 519.103 63.7912 518.541 64.1065C517.987 64.4219 517.552 64.8821 517.237 65.4872C516.93 66.0838 516.772 66.804 516.764 67.6477ZM533.712 79V59.3636H538.903V62.8281H539.133C539.542 61.6776 540.224 60.7699 541.178 60.1051C542.133 59.4403 543.275 59.108 544.604 59.108C545.951 59.108 547.097 59.4446 548.043 60.1179C548.989 60.7827 549.62 61.6861 549.935 62.8281H550.14C550.54 61.7031 551.265 60.804 552.313 60.1307C553.37 59.4489 554.619 59.108 556.059 59.108C557.891 59.108 559.379 59.6918 560.521 60.8594C561.671 62.0185 562.246 63.6634 562.246 65.794V79H556.813V66.8679C556.813 65.777 556.523 64.9588 555.944 64.4134C555.364 63.8679 554.64 63.5952 553.771 63.5952C552.782 63.5952 552.011 63.9105 551.457 64.5412C550.903 65.1634 550.626 65.9858 550.626 67.0085V79H545.346V66.7528C545.346 65.7898 545.069 65.0227 544.515 64.4517C543.969 63.8807 543.249 63.5952 542.354 63.5952C541.749 63.5952 541.204 63.7486 540.718 64.0554C540.241 64.3537 539.862 64.7756 539.58 65.321C539.299 65.858 539.158 66.4886 539.158 67.2131V79H533.712ZM579.141 70.6392V59.3636H584.587V79H579.358V75.4332H579.153C578.71 76.5838 577.973 77.5085 576.942 78.2074C575.919 78.9062 574.67 79.2557 573.196 79.2557C571.884 79.2557 570.729 78.9574 569.732 78.3608C568.734 77.7642 567.955 76.9162 567.392 75.8168C566.838 74.7173 566.557 73.4006 566.548 71.8665V59.3636H571.994V70.8949C572.003 72.054 572.314 72.9702 572.928 73.6435C573.541 74.3168 574.364 74.6534 575.395 74.6534C576.051 74.6534 576.665 74.5043 577.236 74.206C577.807 73.8991 578.267 73.4474 578.616 72.8509C578.974 72.2543 579.149 71.517 579.141 70.6392Z" fill="black"/>
</svg>
