<svg width="710" height="129" viewBox="0 0 710 129" fill="none" xmlns="http://www.w3.org/2000/svg">
<path d="M646.627 0L710 64.5L646.627 129L557 129V0L646.627 0Z" fill="#FF90E5"/>
<rect x="154" width="404" height="129" fill="#FF90E5"/>
<path d="M154 0V129H0L61.6 64.5L0 0L154 0Z" fill="#FF90E5"/>
<path d="M156.276 78V51.8182H166.605C168.591 51.8182 170.283 52.1974 171.68 52.956C173.078 53.706 174.143 54.75 174.876 56.0881C175.618 57.4176 175.989 58.9517 175.989 60.6903C175.989 62.429 175.614 63.9631 174.864 65.2926C174.114 66.6222 173.027 67.6577 171.604 68.3991C170.189 69.1406 168.476 69.5114 166.464 69.5114H159.881V65.0753H165.57C166.635 65.0753 167.513 64.892 168.203 64.5256C168.902 64.1506 169.422 63.6349 169.763 62.9787C170.112 62.3139 170.287 61.5511 170.287 60.6903C170.287 59.821 170.112 59.0625 169.763 58.4148C169.422 57.7585 168.902 57.2514 168.203 56.8935C167.504 56.527 166.618 56.3438 165.544 56.3438H161.811V78H156.276ZM179.482 78V58.3636H184.928V78H179.482ZM182.218 55.8324C181.408 55.8324 180.713 55.5639 180.134 55.027C179.563 54.4815 179.277 53.8295 179.277 53.071C179.277 52.321 179.563 51.6776 180.134 51.1406C180.713 50.5952 181.408 50.3224 182.218 50.3224C183.027 50.3224 183.718 50.5952 184.289 51.1406C184.868 51.6776 185.158 52.321 185.158 53.071C185.158 53.8295 184.868 54.4815 184.289 55.027C183.718 55.5639 183.027 55.8324 182.218 55.8324ZM194.737 51.8182V78H189.29V51.8182H194.737ZM199.099 78V58.3636H204.545V78H199.099ZM201.835 55.8324C201.025 55.8324 200.331 55.5639 199.751 55.027C199.18 54.4815 198.895 53.8295 198.895 53.071C198.895 52.321 199.18 51.6776 199.751 51.1406C200.331 50.5952 201.025 50.3224 201.835 50.3224C202.645 50.3224 203.335 50.5952 203.906 51.1406C204.485 51.6776 204.775 52.321 204.775 53.071C204.775 53.8295 204.485 54.4815 203.906 55.027C203.335 55.5639 202.645 55.8324 201.835 55.8324ZM214.354 66.6477V78H208.908V51.8182H214.2V61.8281H214.43C214.874 60.669 215.589 59.7614 216.578 59.1051C217.567 58.4403 218.807 58.108 220.298 58.108C221.662 58.108 222.851 58.4062 223.865 59.0028C224.888 59.5909 225.68 60.4389 226.243 61.5469C226.814 62.6463 227.095 63.9631 227.087 65.4972V78H221.641V66.4688C221.649 65.2585 221.342 64.3168 220.72 63.6435C220.107 62.9702 219.246 62.6335 218.138 62.6335C217.396 62.6335 216.74 62.7912 216.169 63.1065C215.607 63.4219 215.163 63.8821 214.839 64.4872C214.524 65.0838 214.362 65.804 214.354 66.6477ZM244.639 72.3494L244.652 65.8168H245.445L251.734 58.3636H257.986L249.536 68.233H248.244L244.639 72.3494ZM239.705 78V51.8182H245.151V78H239.705ZM251.977 78L246.199 69.4474L249.83 65.5994L258.357 78H251.977ZM266.257 78.3707C265.004 78.3707 263.888 78.1534 262.908 77.7188C261.928 77.2756 261.152 76.6236 260.581 75.7628C260.018 74.8935 259.737 73.8111 259.737 72.5156C259.737 71.4247 259.938 70.5085 260.338 69.767C260.739 69.0256 261.284 68.429 261.974 67.9773C262.665 67.5256 263.449 67.1847 264.327 66.9545C265.213 66.7244 266.142 66.5625 267.114 66.4688C268.256 66.3494 269.176 66.2386 269.875 66.1364C270.574 66.0256 271.081 65.8636 271.396 65.6506C271.712 65.4375 271.869 65.1222 271.869 64.7045V64.6278C271.869 63.8182 271.614 63.1918 271.102 62.7486C270.599 62.3054 269.884 62.0838 268.955 62.0838C267.974 62.0838 267.195 62.3011 266.615 62.7358C266.036 63.1619 265.652 63.6989 265.464 64.3466L260.428 63.9375C260.683 62.7443 261.186 61.7131 261.936 60.8438C262.686 59.9659 263.653 59.2926 264.838 58.8239C266.031 58.3466 267.412 58.108 268.98 58.108C270.071 58.108 271.115 58.2358 272.112 58.4915C273.118 58.7472 274.009 59.1435 274.784 59.6804C275.568 60.2173 276.186 60.9077 276.638 61.7514C277.089 62.5866 277.315 63.5881 277.315 64.7557V78H272.151V75.277H271.997C271.682 75.8906 271.26 76.4318 270.732 76.9006C270.203 77.3608 269.568 77.723 268.827 77.9872C268.085 78.2429 267.229 78.3707 266.257 78.3707ZM267.817 74.6122C268.618 74.6122 269.325 74.4545 269.939 74.1392C270.553 73.8153 271.034 73.3807 271.384 72.8352C271.733 72.2898 271.908 71.6719 271.908 70.9815V68.8977C271.737 69.0085 271.503 69.1108 271.205 69.2045C270.915 69.2898 270.587 69.3707 270.22 69.4474C269.854 69.5156 269.487 69.5795 269.121 69.6392C268.754 69.6903 268.422 69.7372 268.124 69.7798C267.484 69.8736 266.926 70.0227 266.449 70.2273C265.972 70.4318 265.601 70.7088 265.337 71.0582C265.072 71.3991 264.94 71.8253 264.94 72.3366C264.94 73.0781 265.209 73.6449 265.746 74.0369C266.291 74.4205 266.982 74.6122 267.817 74.6122ZM281.54 78V58.3636H286.731V61.8281H286.961C287.37 60.6776 288.052 59.7699 289.006 59.1051C289.961 58.4403 291.103 58.108 292.433 58.108C293.779 58.108 294.925 58.4446 295.871 59.1179C296.817 59.7827 297.448 60.6861 297.763 61.8281H297.968C298.369 60.7031 299.093 59.804 300.141 59.1307C301.198 58.4489 302.447 58.108 303.887 58.108C305.719 58.108 307.207 58.6918 308.349 59.8594C309.499 61.0185 310.075 62.6634 310.075 64.794V78H304.641V65.8679C304.641 64.777 304.352 63.9588 303.772 63.4134C303.192 62.8679 302.468 62.5952 301.599 62.5952C300.61 62.5952 299.839 62.9105 299.285 63.5412C298.731 64.1634 298.454 64.9858 298.454 66.0085V78H293.174V65.7528C293.174 64.7898 292.897 64.0227 292.343 63.4517C291.798 62.8807 291.077 62.5952 290.183 62.5952C289.577 62.5952 289.032 62.7486 288.546 63.0554C288.069 63.3537 287.69 63.7756 287.408 64.321C287.127 64.858 286.987 65.4886 286.987 66.2131V78H281.54ZM314.376 85.3636V58.3636H319.746V61.6619H319.989C320.227 61.1335 320.572 60.5966 321.024 60.0511C321.484 59.4972 322.081 59.0369 322.814 58.6705C323.555 58.2955 324.476 58.108 325.575 58.108C327.007 58.108 328.328 58.483 329.538 59.233C330.749 59.9744 331.716 61.0952 332.44 62.5952C333.165 64.0866 333.527 65.9574 333.527 68.2074C333.527 70.3977 333.173 72.2472 332.466 73.7557C331.767 75.2557 330.813 76.3935 329.602 77.169C328.401 77.9361 327.054 78.3196 325.562 78.3196C324.506 78.3196 323.607 78.1449 322.865 77.7955C322.132 77.446 321.531 77.0071 321.062 76.4787C320.594 75.9418 320.236 75.4006 319.989 74.8551H319.822V85.3636H314.376ZM319.707 68.1818C319.707 69.3494 319.869 70.3679 320.193 71.2372C320.517 72.1065 320.986 72.7841 321.599 73.2699C322.213 73.7472 322.959 73.9858 323.837 73.9858C324.723 73.9858 325.473 73.7429 326.087 73.2571C326.7 72.7628 327.165 72.081 327.48 71.2116C327.804 70.3338 327.966 69.3239 327.966 68.1818C327.966 67.0483 327.808 66.0511 327.493 65.1903C327.178 64.3295 326.713 63.6562 326.099 63.1705C325.486 62.6847 324.732 62.4418 323.837 62.4418C322.95 62.4418 322.2 62.6761 321.587 63.1449C320.982 63.6136 320.517 64.2784 320.193 65.1392C319.869 66 319.707 67.0142 319.707 68.1818ZM349.75 69.6392V58.3636H355.196V78H349.967V74.4332H349.763C349.32 75.5838 348.582 76.5085 347.551 77.2074C346.528 77.9062 345.28 78.2557 343.805 78.2557C342.493 78.2557 341.338 77.9574 340.341 77.3608C339.344 76.7642 338.564 75.9162 338.001 74.8168C337.447 73.7173 337.166 72.4006 337.158 70.8665V58.3636H342.604V69.8949C342.612 71.054 342.923 71.9702 343.537 72.6435C344.151 73.3168 344.973 73.6534 346.004 73.6534C346.661 73.6534 347.274 73.5043 347.845 73.206C348.416 72.8991 348.876 72.4474 349.226 71.8509C349.584 71.2543 349.759 70.517 349.75 69.6392ZM375.89 63.9631L370.904 64.2699C370.819 63.8437 370.636 63.4602 370.355 63.1193C370.074 62.7699 369.703 62.4929 369.243 62.2884C368.791 62.0753 368.25 61.9688 367.619 61.9688C366.775 61.9688 366.064 62.1477 365.484 62.5057C364.904 62.8551 364.615 63.3239 364.615 63.9119C364.615 64.3807 364.802 64.777 365.177 65.1009C365.552 65.4247 366.196 65.6847 367.108 65.8807L370.662 66.5966C372.571 66.9886 373.994 67.6193 374.931 68.4886C375.869 69.358 376.338 70.5 376.338 71.9148C376.338 73.2017 375.958 74.331 375.2 75.3026C374.45 76.2741 373.419 77.0327 372.106 77.5781C370.802 78.1151 369.298 78.3835 367.593 78.3835C364.994 78.3835 362.923 77.8423 361.38 76.7599C359.846 75.669 358.947 74.1861 358.683 72.3111L364.039 72.0298C364.201 72.8224 364.593 73.4276 365.216 73.8452C365.838 74.2543 366.635 74.4588 367.606 74.4588C368.561 74.4588 369.328 74.2756 369.907 73.9091C370.495 73.5341 370.794 73.0526 370.802 72.4645C370.794 71.9702 370.585 71.5653 370.176 71.25C369.767 70.9261 369.136 70.679 368.284 70.5085L364.883 69.831C362.966 69.4474 361.538 68.7827 360.6 67.8366C359.672 66.8906 359.207 65.6847 359.207 64.2188C359.207 62.9574 359.548 61.8707 360.23 60.9588C360.92 60.0469 361.887 59.3438 363.132 58.8494C364.385 58.3551 365.85 58.108 367.529 58.108C370.01 58.108 371.961 58.6321 373.385 59.6804C374.816 60.7287 375.652 62.1562 375.89 63.9631ZM388.099 78V58.3636H393.545V78H388.099ZM390.835 55.8324C390.025 55.8324 389.331 55.5639 388.751 55.027C388.18 54.4815 387.895 53.8295 387.895 53.071C387.895 52.321 388.18 51.6776 388.751 51.1406C389.331 50.5952 390.025 50.3224 390.835 50.3224C391.645 50.3224 392.335 50.5952 392.906 51.1406C393.485 51.6776 393.775 52.321 393.775 53.071C393.775 53.8295 393.485 54.4815 392.906 55.027C392.335 55.5639 391.645 55.8324 390.835 55.8324ZM397.908 78V58.3636H403.098V61.8281H403.328C403.737 60.6776 404.419 59.7699 405.374 59.1051C406.328 58.4403 407.47 58.108 408.8 58.108C410.146 58.108 411.293 58.4446 412.239 59.1179C413.185 59.7827 413.815 60.6861 414.131 61.8281H414.335C414.736 60.7031 415.46 59.804 416.509 59.1307C417.565 58.4489 418.814 58.108 420.254 58.108C422.087 58.108 423.574 58.6918 424.716 59.8594C425.866 61.0185 426.442 62.6634 426.442 64.794V78H421.009V65.8679C421.009 64.777 420.719 63.9588 420.139 63.4134C419.56 62.8679 418.835 62.5952 417.966 62.5952C416.977 62.5952 416.206 62.9105 415.652 63.5412C415.098 64.1634 414.821 64.9858 414.821 66.0085V78H409.541V65.7528C409.541 64.7898 409.264 64.0227 408.71 63.4517C408.165 62.8807 407.445 62.5952 406.55 62.5952C405.945 62.5952 405.399 62.7486 404.913 63.0554C404.436 63.3537 404.057 63.7756 403.776 64.321C403.494 64.858 403.354 65.4886 403.354 66.2131V78H397.908ZM430.744 85.3636V58.3636H436.113V61.6619H436.356C436.594 61.1335 436.94 60.5966 437.391 60.0511C437.852 59.4972 438.448 59.0369 439.181 58.6705C439.923 58.2955 440.843 58.108 441.942 58.108C443.374 58.108 444.695 58.483 445.906 59.233C447.116 59.9744 448.083 61.0952 448.808 62.5952C449.532 64.0866 449.894 65.9574 449.894 68.2074C449.894 70.3977 449.54 72.2472 448.833 73.7557C448.134 75.2557 447.18 76.3935 445.969 77.169C444.768 77.9361 443.421 78.3196 441.93 78.3196C440.873 78.3196 439.974 78.1449 439.232 77.7955C438.499 77.446 437.898 77.0071 437.43 76.4787C436.961 75.9418 436.603 75.4006 436.356 74.8551H436.19V85.3636H430.744ZM436.075 68.1818C436.075 69.3494 436.237 70.3679 436.56 71.2372C436.884 72.1065 437.353 72.7841 437.967 73.2699C438.58 73.7472 439.326 73.9858 440.204 73.9858C441.09 73.9858 441.84 73.7429 442.454 73.2571C443.067 72.7628 443.532 72.081 443.847 71.2116C444.171 70.3338 444.333 69.3239 444.333 68.1818C444.333 67.0483 444.175 66.0511 443.86 65.1903C443.545 64.3295 443.08 63.6562 442.467 63.1705C441.853 62.6847 441.099 62.4418 440.204 62.4418C439.317 62.4418 438.567 62.6761 437.954 63.1449C437.349 63.6136 436.884 64.2784 436.56 65.1392C436.237 66 436.075 67.0142 436.075 68.1818ZM453.525 78V58.3636H458.971V78H453.525ZM456.261 55.8324C455.451 55.8324 454.756 55.5639 454.177 55.027C453.606 54.4815 453.32 53.8295 453.32 53.071C453.32 52.321 453.606 51.6776 454.177 51.1406C454.756 50.5952 455.451 50.3224 456.261 50.3224C457.07 50.3224 457.761 50.5952 458.332 51.1406C458.911 51.6776 459.201 52.321 459.201 53.071C459.201 53.8295 458.911 54.4815 458.332 55.027C457.761 55.5639 457.07 55.8324 456.261 55.8324ZM468.933 78.3707C467.68 78.3707 466.564 78.1534 465.583 77.7188C464.603 77.2756 463.828 76.6236 463.257 75.7628C462.694 74.8935 462.413 73.8111 462.413 72.5156C462.413 71.4247 462.613 70.5085 463.014 69.767C463.414 69.0256 463.96 68.429 464.65 67.9773C465.341 67.5256 466.125 67.1847 467.002 66.9545C467.889 66.7244 468.818 66.5625 469.789 66.4688C470.931 66.3494 471.852 66.2386 472.551 66.1364C473.25 66.0256 473.757 65.8636 474.072 65.6506C474.387 65.4375 474.545 65.1222 474.545 64.7045V64.6278C474.545 63.8182 474.289 63.1918 473.778 62.7486C473.275 62.3054 472.559 62.0838 471.63 62.0838C470.65 62.0838 469.87 62.3011 469.291 62.7358C468.711 63.1619 468.328 63.6989 468.14 64.3466L463.103 63.9375C463.359 62.7443 463.862 61.7131 464.612 60.8438C465.362 59.9659 466.329 59.2926 467.514 58.8239C468.707 58.3466 470.088 58.108 471.656 58.108C472.747 58.108 473.791 58.2358 474.788 58.4915C475.794 58.7472 476.684 59.1435 477.46 59.6804C478.244 60.2173 478.862 60.9077 479.314 61.7514C479.765 62.5866 479.991 63.5881 479.991 64.7557V78H474.826V75.277H474.673C474.358 75.8906 473.936 76.4318 473.407 76.9006C472.879 77.3608 472.244 77.723 471.502 77.9872C470.761 78.2429 469.904 78.3707 468.933 78.3707ZM470.493 74.6122C471.294 74.6122 472.001 74.4545 472.615 74.1392C473.228 73.8153 473.71 73.3807 474.059 72.8352C474.409 72.2898 474.583 71.6719 474.583 70.9815V68.8977C474.413 69.0085 474.179 69.1108 473.88 69.2045C473.591 69.2898 473.262 69.3707 472.896 69.4474C472.529 69.5156 472.163 69.5795 471.797 69.6392C471.43 69.6903 471.098 69.7372 470.799 69.7798C470.16 69.8736 469.602 70.0227 469.125 70.2273C468.647 70.4318 468.277 70.7088 468.012 71.0582C467.748 71.3991 467.616 71.8253 467.616 72.3366C467.616 73.0781 467.885 73.6449 468.422 74.0369C468.967 74.4205 469.657 74.6122 470.493 74.6122ZM489.662 66.6477V78H484.216V58.3636H489.407V61.8281H489.637C490.071 60.6861 490.8 59.7827 491.823 59.1179C492.846 58.4446 494.086 58.108 495.543 58.108C496.907 58.108 498.096 58.4062 499.11 59.0028C500.124 59.5994 500.912 60.4517 501.475 61.5597C502.037 62.6591 502.319 63.9716 502.319 65.4972V78H496.873V66.4688C496.881 65.267 496.574 64.3295 495.952 63.6562C495.33 62.9744 494.473 62.6335 493.382 62.6335C492.65 62.6335 492.002 62.7912 491.439 63.1065C490.885 63.4219 490.451 63.8821 490.135 64.4872C489.828 65.0838 489.671 65.804 489.662 66.6477ZM506.611 78V58.3636H511.801V61.8281H512.031C512.44 60.6776 513.122 59.7699 514.077 59.1051C515.031 58.4403 516.173 58.108 517.503 58.108C518.849 58.108 519.996 58.4446 520.942 59.1179C521.888 59.7827 522.518 60.6861 522.834 61.8281H523.038C523.439 60.7031 524.163 59.804 525.212 59.1307C526.268 58.4489 527.517 58.108 528.957 58.108C530.79 58.108 532.277 58.6918 533.419 59.8594C534.57 61.0185 535.145 62.6634 535.145 64.794V78H529.712V65.8679C529.712 64.777 529.422 63.9588 528.842 63.4134C528.263 62.8679 527.538 62.5952 526.669 62.5952C525.68 62.5952 524.909 62.9105 524.355 63.5412C523.801 64.1634 523.524 64.9858 523.524 66.0085V78H518.244V65.7528C518.244 64.7898 517.967 64.0227 517.413 63.4517C516.868 62.8807 516.148 62.5952 515.253 62.5952C514.648 62.5952 514.102 62.7486 513.616 63.0554C513.139 63.3537 512.76 63.7756 512.479 64.321C512.197 64.858 512.057 65.4886 512.057 66.2131V78H506.611ZM552.039 69.6392V58.3636H557.485V78H552.256V74.4332H552.052C551.609 75.5838 550.871 76.5085 549.84 77.2074C548.817 77.9062 547.569 78.2557 546.094 78.2557C544.782 78.2557 543.627 77.9574 542.63 77.3608C541.633 76.7642 540.853 75.9162 540.29 74.8168C539.737 73.7173 539.455 72.4006 539.447 70.8665V58.3636H544.893V69.8949C544.901 71.054 545.212 71.9702 545.826 72.6435C546.44 73.3168 547.262 73.6534 548.293 73.6534C548.95 73.6534 549.563 73.5043 550.134 73.206C550.705 72.8991 551.165 72.4474 551.515 71.8509C551.873 71.2543 552.048 70.517 552.039 69.6392Z" fill="black"/>
</svg>
