<svg width="711" height="129" viewBox="0 0 711 129" fill="none" xmlns="http://www.w3.org/2000/svg">
<path d="M63.3729 129L0 64.5L63.3729 -7.45058e-06H153V129H63.3729Z" fill="#FFE483"/>
<path d="M557 129V0H711L649.4 64.5L711 129H557Z" fill="#FFE483"/>
<rect x="153" width="404" height="129" fill="#FFE483"/>
<path d="M148.352 56V29.8182H158.681C160.667 29.8182 162.359 30.1974 163.757 30.956C165.154 31.706 166.22 32.75 166.953 34.0881C167.694 35.4176 168.065 36.9517 168.065 38.6903C168.065 40.429 167.69 41.9631 166.94 43.2926C166.19 44.6222 165.103 45.6577 163.68 46.3991C162.265 47.1406 160.552 47.5114 158.541 47.5114H151.957V43.0753H157.646C158.711 43.0753 159.589 42.892 160.279 42.5256C160.978 42.1506 161.498 41.6349 161.839 40.9787C162.188 40.3139 162.363 39.5511 162.363 38.6903C162.363 37.821 162.188 37.0625 161.839 36.4148C161.498 35.7585 160.978 35.2514 160.279 34.8935C159.58 34.527 158.694 34.3438 157.62 34.3438H153.887V56H148.352ZM180.191 56.3835C178.171 56.3835 176.432 55.9744 174.975 55.1562C173.526 54.3295 172.409 53.1619 171.625 51.6534C170.841 50.1364 170.449 48.3423 170.449 46.2713C170.449 44.2514 170.841 42.4787 171.625 40.9531C172.409 39.4276 173.513 38.2386 174.936 37.3864C176.368 36.5341 178.047 36.108 179.973 36.108C181.269 36.108 182.475 36.3168 183.591 36.7344C184.716 37.1435 185.696 37.7614 186.531 38.5881C187.375 39.4148 188.031 40.4545 188.5 41.7074C188.969 42.9517 189.203 44.4091 189.203 46.0795V47.5753H172.622V44.2003H184.077C184.077 43.4162 183.906 42.7216 183.566 42.1165C183.225 41.5114 182.752 41.0384 182.146 40.6974C181.55 40.348 180.855 40.1733 180.063 40.1733C179.236 40.1733 178.503 40.3651 177.864 40.7486C177.233 41.1236 176.739 41.6307 176.381 42.2699C176.023 42.9006 175.84 43.6037 175.831 44.3793V47.5881C175.831 48.5597 176.01 49.3991 176.368 50.1065C176.735 50.8139 177.25 51.3594 177.915 51.7429C178.58 52.1264 179.368 52.3182 180.28 52.3182C180.885 52.3182 181.439 52.233 181.942 52.0625C182.445 51.892 182.875 51.6364 183.233 51.2955C183.591 50.9545 183.864 50.5369 184.051 50.0426L189.088 50.375C188.833 51.5852 188.308 52.642 187.516 53.5455C186.732 54.4403 185.718 55.1392 184.473 55.642C183.237 56.1364 181.81 56.3835 180.191 56.3835ZM192.757 56V36.3636H198.037V39.7898H198.242C198.6 38.571 199.2 37.6506 200.044 37.0284C200.888 36.3977 201.86 36.0824 202.959 36.0824C203.232 36.0824 203.526 36.0994 203.841 36.1335C204.156 36.1676 204.433 36.2145 204.672 36.2741V41.1065C204.416 41.0298 204.063 40.9616 203.611 40.902C203.159 40.8423 202.746 40.8125 202.371 40.8125C201.57 40.8125 200.854 40.9872 200.223 41.3366C199.601 41.6776 199.107 42.1548 198.74 42.7685C198.382 43.3821 198.203 44.0895 198.203 44.8906V56H192.757ZM212.934 44.6477V56H207.488V29.8182H212.78V39.8281H213.01C213.454 38.669 214.17 37.7614 215.158 37.1051C216.147 36.4403 217.387 36.108 218.878 36.108C220.242 36.108 221.431 36.4062 222.445 37.0028C223.468 37.5909 224.26 38.4389 224.823 39.5469C225.394 40.6463 225.675 41.9631 225.667 43.4972V56H220.221V44.4688C220.229 43.2585 219.922 42.3168 219.3 41.6435C218.687 40.9702 217.826 40.6335 216.718 40.6335C215.976 40.6335 215.32 40.7912 214.749 41.1065C214.187 41.4219 213.743 41.8821 213.42 42.4872C213.104 43.0838 212.942 43.804 212.934 44.6477ZM235.552 56.3707C234.299 56.3707 233.183 56.1534 232.203 55.7188C231.222 55.2756 230.447 54.6236 229.876 53.7628C229.313 52.8935 229.032 51.8111 229.032 50.5156C229.032 49.4247 229.232 48.5085 229.633 47.767C230.034 47.0256 230.579 46.429 231.269 45.9773C231.96 45.5256 232.744 45.1847 233.622 44.9545C234.508 44.7244 235.437 44.5625 236.409 44.4688C237.551 44.3494 238.471 44.2386 239.17 44.1364C239.869 44.0256 240.376 43.8636 240.691 43.6506C241.007 43.4375 241.164 43.1222 241.164 42.7045V42.6278C241.164 41.8182 240.909 41.1918 240.397 40.7486C239.894 40.3054 239.178 40.0838 238.249 40.0838C237.269 40.0838 236.49 40.3011 235.91 40.7358C235.33 41.1619 234.947 41.6989 234.759 42.3466L229.722 41.9375C229.978 40.7443 230.481 39.7131 231.231 38.8438C231.981 37.9659 232.948 37.2926 234.133 36.8239C235.326 36.3466 236.707 36.108 238.275 36.108C239.366 36.108 240.41 36.2358 241.407 36.4915C242.413 36.7472 243.303 37.1435 244.079 37.6804C244.863 38.2173 245.481 38.9077 245.933 39.7514C246.384 40.5866 246.61 41.5881 246.61 42.7557V56H241.445V53.277H241.292C240.977 53.8906 240.555 54.4318 240.026 54.9006C239.498 55.3608 238.863 55.723 238.122 55.9872C237.38 56.2429 236.524 56.3707 235.552 56.3707ZM237.112 52.6122C237.913 52.6122 238.62 52.4545 239.234 52.1392C239.847 51.8153 240.329 51.3807 240.678 50.8352C241.028 50.2898 241.203 49.6719 241.203 48.9815V46.8977C241.032 47.0085 240.798 47.1108 240.499 47.2045C240.21 47.2898 239.882 47.3707 239.515 47.4474C239.149 47.5156 238.782 47.5795 238.416 47.6392C238.049 47.6903 237.717 47.7372 237.419 47.7798C236.779 47.8736 236.221 48.0227 235.744 48.2273C235.267 48.4318 234.896 48.7088 234.632 49.0582C234.367 49.3991 234.235 49.8253 234.235 50.3366C234.235 51.0781 234.504 51.6449 235.041 52.0369C235.586 52.4205 236.276 52.6122 237.112 52.6122ZM261.28 36.3636V40.4545H249.455V36.3636H261.28ZM252.139 31.6591H257.585V49.9659C257.585 50.4687 257.662 50.8608 257.816 51.142C257.969 51.4148 258.182 51.6065 258.455 51.7173C258.736 51.8281 259.06 51.8835 259.426 51.8835C259.682 51.8835 259.938 51.8622 260.193 51.8196C260.449 51.7685 260.645 51.7301 260.781 51.7045L261.638 55.7571C261.365 55.8423 260.982 55.9403 260.487 56.0511C259.993 56.1705 259.392 56.2429 258.685 56.2685C257.372 56.3196 256.222 56.1449 255.233 55.7443C254.253 55.3437 253.49 54.7216 252.945 53.8778C252.399 53.0341 252.131 51.9687 252.139 50.6818V31.6591ZM264.828 56V36.3636H270.274V56H264.828ZM267.563 33.8324C266.754 33.8324 266.059 33.5639 265.48 33.027C264.909 32.4815 264.623 31.8295 264.623 31.071C264.623 30.321 264.909 29.6776 265.48 29.1406C266.059 28.5952 266.754 28.3224 267.563 28.3224C268.373 28.3224 269.063 28.5952 269.634 29.1406C270.214 29.6776 270.504 30.321 270.504 31.071C270.504 31.8295 270.214 32.4815 269.634 33.027C269.063 33.5639 268.373 33.8324 267.563 33.8324ZM279.571 50.3494L279.584 43.8168H280.376L286.666 36.3636H292.917L284.467 46.233H283.176L279.571 50.3494ZM274.636 56V29.8182H280.082V56H274.636ZM286.909 56L281.131 47.4474L284.761 43.5994L293.288 56H286.909ZM301.189 56.3707C299.936 56.3707 298.819 56.1534 297.839 55.7188C296.859 55.2756 296.084 54.6236 295.513 53.7628C294.95 52.8935 294.669 51.8111 294.669 50.5156C294.669 49.4247 294.869 48.5085 295.27 47.767C295.67 47.0256 296.216 46.429 296.906 45.9773C297.596 45.5256 298.381 45.1847 299.258 44.9545C300.145 44.7244 301.074 44.5625 302.045 44.4688C303.187 44.3494 304.108 44.2386 304.807 44.1364C305.506 44.0256 306.013 43.8636 306.328 43.6506C306.643 43.4375 306.801 43.1222 306.801 42.7045V42.6278C306.801 41.8182 306.545 41.1918 306.034 40.7486C305.531 40.3054 304.815 40.0838 303.886 40.0838C302.906 40.0838 302.126 40.3011 301.547 40.7358C300.967 41.1619 300.584 41.6989 300.396 42.3466L295.359 41.9375C295.615 40.7443 296.118 39.7131 296.868 38.8438C297.618 37.9659 298.585 37.2926 299.77 36.8239C300.963 36.3466 302.344 36.108 303.912 36.108C305.003 36.108 306.047 36.2358 307.044 36.4915C308.05 36.7472 308.94 37.1435 309.716 37.6804C310.5 38.2173 311.118 38.9077 311.569 39.7514C312.021 40.5866 312.247 41.5881 312.247 42.7557V56H307.082V53.277H306.929C306.613 53.8906 306.192 54.4318 305.663 54.9006C305.135 55.3608 304.5 55.723 303.758 55.9872C303.017 56.2429 302.16 56.3707 301.189 56.3707ZM302.748 52.6122C303.55 52.6122 304.257 52.4545 304.871 52.1392C305.484 51.8153 305.966 51.3807 306.315 50.8352C306.665 50.2898 306.839 49.6719 306.839 48.9815V46.8977C306.669 47.0085 306.434 47.1108 306.136 47.2045C305.846 47.2898 305.518 47.3707 305.152 47.4474C304.785 47.5156 304.419 47.5795 304.052 47.6392C303.686 47.6903 303.354 47.7372 303.055 47.7798C302.416 47.8736 301.858 48.0227 301.381 48.2273C300.903 48.4318 300.532 48.7088 300.268 49.0582C300.004 49.3991 299.872 49.8253 299.872 50.3366C299.872 51.0781 300.14 51.6449 300.677 52.0369C301.223 52.4205 301.913 52.6122 302.748 52.6122ZM321.918 44.6477V56H316.472V36.3636H321.662V39.8281H321.893C322.327 38.6861 323.056 37.7827 324.079 37.1179C325.101 36.4446 326.341 36.108 327.799 36.108C329.162 36.108 330.351 36.4062 331.366 37.0028C332.38 37.5994 333.168 38.4517 333.731 39.5597C334.293 40.6591 334.574 41.9716 334.574 43.4972V56H329.128V44.4688C329.137 43.267 328.83 42.3295 328.208 41.6562C327.586 40.9744 326.729 40.6335 325.638 40.6335C324.905 40.6335 324.258 40.7912 323.695 41.1065C323.141 41.4219 322.706 41.8821 322.391 42.4872C322.084 43.0838 321.927 43.804 321.918 44.6477ZM352.798 56.3707C351.545 56.3707 350.429 56.1534 349.449 55.7188C348.469 55.2756 347.693 54.6236 347.122 53.7628C346.559 52.8935 346.278 51.8111 346.278 50.5156C346.278 49.4247 346.479 48.5085 346.879 47.767C347.28 47.0256 347.825 46.429 348.515 45.9773C349.206 45.5256 349.99 45.1847 350.868 44.9545C351.754 44.7244 352.683 44.5625 353.655 44.4688C354.797 44.3494 355.717 44.2386 356.416 44.1364C357.115 44.0256 357.622 43.8636 357.937 43.6506C358.253 43.4375 358.41 43.1222 358.41 42.7045V42.6278C358.41 41.8182 358.155 41.1918 357.643 40.7486C357.14 40.3054 356.425 40.0838 355.496 40.0838C354.515 40.0838 353.736 40.3011 353.156 40.7358C352.577 41.1619 352.193 41.6989 352.006 42.3466L346.969 41.9375C347.224 40.7443 347.727 39.7131 348.477 38.8438C349.227 37.9659 350.194 37.2926 351.379 36.8239C352.572 36.3466 353.953 36.108 355.521 36.108C356.612 36.108 357.656 36.2358 358.653 36.4915C359.659 36.7472 360.55 37.1435 361.325 37.6804C362.109 38.2173 362.727 38.9077 363.179 39.7514C363.631 40.5866 363.856 41.5881 363.856 42.7557V56H358.692V53.277H358.538C358.223 53.8906 357.801 54.4318 357.273 54.9006C356.744 55.3608 356.109 55.723 355.368 55.9872C354.626 56.2429 353.77 56.3707 352.798 56.3707ZM354.358 52.6122C355.159 52.6122 355.866 52.4545 356.48 52.1392C357.094 51.8153 357.575 51.3807 357.925 50.8352C358.274 50.2898 358.449 49.6719 358.449 48.9815V46.8977C358.278 47.0085 358.044 47.1108 357.746 47.2045C357.456 47.2898 357.128 47.3707 356.761 47.4474C356.395 47.5156 356.028 47.5795 355.662 47.6392C355.295 47.6903 354.963 47.7372 354.665 47.7798C354.025 47.8736 353.467 48.0227 352.99 48.2273C352.513 48.4318 352.142 48.7088 351.878 49.0582C351.613 49.3991 351.481 49.8253 351.481 50.3366C351.481 51.0781 351.75 51.6449 352.287 52.0369C352.832 52.4205 353.523 52.6122 354.358 52.6122ZM375.317 56.3196C373.826 56.3196 372.475 55.9361 371.265 55.169C370.063 54.3935 369.108 53.2557 368.401 51.7557C367.702 50.2472 367.353 48.3977 367.353 46.2074C367.353 43.9574 367.715 42.0866 368.439 40.5952C369.164 39.0952 370.127 37.9744 371.329 37.233C372.539 36.483 373.864 36.108 375.305 36.108C376.404 36.108 377.32 36.2955 378.053 36.6705C378.795 37.0369 379.391 37.4972 379.843 38.0511C380.303 38.5966 380.653 39.1335 380.891 39.6619H381.057V29.8182H386.491V56H381.121V52.8551H380.891C380.635 53.4006 380.273 53.9418 379.805 54.4787C379.344 55.0071 378.743 55.446 378.002 55.7955C377.269 56.1449 376.374 56.3196 375.317 56.3196ZM377.043 51.9858C377.921 51.9858 378.662 51.7472 379.268 51.2699C379.881 50.7841 380.35 50.1065 380.674 49.2372C381.006 48.3679 381.172 47.3494 381.172 46.1818C381.172 45.0142 381.01 44 380.687 43.1392C380.363 42.2784 379.894 41.6136 379.28 41.1449C378.667 40.6761 377.921 40.4418 377.043 40.4418C376.148 40.4418 375.394 40.6847 374.78 41.1705C374.167 41.6562 373.702 42.3295 373.387 43.1903C373.072 44.0511 372.914 45.0483 372.914 46.1818C372.914 47.3239 373.072 48.3338 373.387 49.2116C373.711 50.081 374.175 50.7628 374.78 51.2571C375.394 51.7429 376.148 51.9858 377.043 51.9858ZM390.968 56V36.3636H396.159V39.8281H396.389C396.798 38.6776 397.48 37.7699 398.434 37.1051C399.389 36.4403 400.531 36.108 401.86 36.108C403.207 36.108 404.353 36.4446 405.299 37.1179C406.245 37.7827 406.876 38.6861 407.191 39.8281H407.396C407.796 38.7031 408.521 37.804 409.569 37.1307C410.626 36.4489 411.874 36.108 413.315 36.108C415.147 36.108 416.634 36.6918 417.776 37.8594C418.927 39.0185 419.502 40.6634 419.502 42.794V56H414.069V43.8679C414.069 42.777 413.779 41.9588 413.2 41.4134C412.62 40.8679 411.896 40.5952 411.026 40.5952C410.038 40.5952 409.267 40.9105 408.713 41.5412C408.159 42.1634 407.882 42.9858 407.882 44.0085V56H402.602V43.7528C402.602 42.7898 402.325 42.0227 401.771 41.4517C401.225 40.8807 400.505 40.5952 399.61 40.5952C399.005 40.5952 398.46 40.7486 397.974 41.0554C397.497 41.3537 397.117 41.7756 396.836 42.321C396.555 42.858 396.414 43.4886 396.414 44.2131V56H390.968ZM423.804 56V36.3636H429.25V56H423.804ZM426.54 33.8324C425.73 33.8324 425.036 33.5639 424.456 33.027C423.885 32.4815 423.6 31.8295 423.6 31.071C423.6 30.321 423.885 29.6776 424.456 29.1406C425.036 28.5952 425.73 28.3224 426.54 28.3224C427.35 28.3224 428.04 28.5952 428.611 29.1406C429.191 29.6776 429.48 30.321 429.48 31.071C429.48 31.8295 429.191 32.4815 428.611 33.027C428.04 33.5639 427.35 33.8324 426.54 33.8324ZM439.059 44.6477V56H433.613V36.3636H438.803V39.8281H439.033C439.468 38.6861 440.197 37.7827 441.219 37.1179C442.242 36.4446 443.482 36.108 444.939 36.108C446.303 36.108 447.492 36.4062 448.506 37.0028C449.52 37.5994 450.309 38.4517 450.871 39.5597C451.434 40.6591 451.715 41.9716 451.715 43.4972V56H446.269V44.4688C446.278 43.267 445.971 42.3295 445.349 41.6562C444.726 40.9744 443.87 40.6335 442.779 40.6335C442.046 40.6335 441.398 40.7912 440.836 41.1065C440.282 41.4219 439.847 41.8821 439.532 42.4872C439.225 43.0838 439.067 43.804 439.059 44.6477ZM456.007 56V36.3636H461.453V56H456.007ZM458.743 33.8324C457.933 33.8324 457.239 33.5639 456.659 33.027C456.088 32.4815 455.803 31.8295 455.803 31.071C455.803 30.321 456.088 29.6776 456.659 29.1406C457.239 28.5952 457.933 28.3224 458.743 28.3224C459.553 28.3224 460.243 28.5952 460.814 29.1406C461.394 29.6776 461.683 30.321 461.683 31.071C461.683 31.8295 461.394 32.4815 460.814 33.027C460.243 33.5639 459.553 33.8324 458.743 33.8324ZM482.154 41.9631L477.168 42.2699C477.083 41.8437 476.9 41.4602 476.618 41.1193C476.337 40.7699 475.966 40.4929 475.506 40.2884C475.055 40.0753 474.513 39.9688 473.883 39.9688C473.039 39.9688 472.327 40.1477 471.748 40.5057C471.168 40.8551 470.878 41.3239 470.878 41.9119C470.878 42.3807 471.066 42.777 471.441 43.1009C471.816 43.4247 472.459 43.6847 473.371 43.8807L476.925 44.5966C478.834 44.9886 480.258 45.6193 481.195 46.4886C482.133 47.358 482.601 48.5 482.601 49.9148C482.601 51.2017 482.222 52.331 481.464 53.3026C480.714 54.2741 479.682 55.0327 478.37 55.5781C477.066 56.1151 475.562 56.3835 473.857 56.3835C471.258 56.3835 469.187 55.8423 467.644 54.7599C466.11 53.669 465.211 52.1861 464.947 50.3111L470.303 50.0298C470.465 50.8224 470.857 51.4276 471.479 51.8452C472.101 52.2543 472.898 52.4588 473.87 52.4588C474.824 52.4588 475.591 52.2756 476.171 51.9091C476.759 51.5341 477.057 51.0526 477.066 50.4645C477.057 49.9702 476.849 49.5653 476.439 49.25C476.03 48.9261 475.4 48.679 474.547 48.5085L471.147 47.831C469.229 47.4474 467.802 46.7827 466.864 45.8366C465.935 44.8906 465.471 43.6847 465.471 42.2188C465.471 40.9574 465.812 39.8707 466.493 38.9588C467.184 38.0469 468.151 37.3438 469.395 36.8494C470.648 36.3551 472.114 36.108 473.793 36.108C476.273 36.108 478.225 36.6321 479.648 37.6804C481.08 38.7287 481.915 40.1562 482.154 41.9631ZM496.475 36.3636V40.4545H484.65V36.3636H496.475ZM487.335 31.6591H492.781V49.9659C492.781 50.4687 492.857 50.8608 493.011 51.142C493.164 51.4148 493.377 51.6065 493.65 51.7173C493.931 51.8281 494.255 51.8835 494.622 51.8835C494.877 51.8835 495.133 51.8622 495.389 51.8196C495.644 51.7685 495.84 51.7301 495.977 51.7045L496.833 55.7571C496.561 55.8423 496.177 55.9403 495.683 56.0511C495.188 56.1705 494.588 56.2429 493.88 56.2685C492.568 56.3196 491.417 56.1449 490.428 55.7443C489.448 55.3437 488.686 54.7216 488.14 53.8778C487.595 53.0341 487.326 51.9687 487.335 50.6818V31.6591ZM500.023 56V36.3636H505.303V39.7898H505.507C505.865 38.571 506.466 37.6506 507.31 37.0284C508.154 36.3977 509.125 36.0824 510.225 36.0824C510.497 36.0824 510.791 36.0994 511.107 36.1335C511.422 36.1676 511.699 36.2145 511.938 36.2741V41.1065C511.682 41.0298 511.328 40.9616 510.877 40.902C510.425 40.8423 510.012 40.8125 509.637 40.8125C508.835 40.8125 508.119 40.9872 507.489 41.3366C506.867 41.6776 506.372 42.1548 506.006 42.7685C505.648 43.3821 505.469 44.0895 505.469 44.8906V56H500.023ZM519.79 56.3707C518.537 56.3707 517.421 56.1534 516.441 55.7188C515.461 55.2756 514.685 54.6236 514.114 53.7628C513.552 52.8935 513.27 51.8111 513.27 50.5156C513.27 49.4247 513.471 48.5085 513.871 47.767C514.272 47.0256 514.817 46.429 515.508 45.9773C516.198 45.5256 516.982 45.1847 517.86 44.9545C518.746 44.7244 519.675 44.5625 520.647 44.4688C521.789 44.3494 522.709 44.2386 523.408 44.1364C524.107 44.0256 524.614 43.8636 524.93 43.6506C525.245 43.4375 525.403 43.1222 525.403 42.7045V42.6278C525.403 41.8182 525.147 41.1918 524.635 40.7486C524.133 40.3054 523.417 40.0838 522.488 40.0838C521.508 40.0838 520.728 40.3011 520.148 40.7358C519.569 41.1619 519.185 41.6989 518.998 42.3466L513.961 41.9375C514.216 40.7443 514.719 39.7131 515.469 38.8438C516.219 37.9659 517.187 37.2926 518.371 36.8239C519.564 36.3466 520.945 36.108 522.513 36.108C523.604 36.108 524.648 36.2358 525.645 36.4915C526.651 36.7472 527.542 37.1435 528.317 37.6804C529.101 38.2173 529.719 38.9077 530.171 39.7514C530.623 40.5866 530.849 41.5881 530.849 42.7557V56H525.684V53.277H525.53C525.215 53.8906 524.793 54.4318 524.265 54.9006C523.736 55.3608 523.101 55.723 522.36 55.9872C521.618 56.2429 520.762 56.3707 519.79 56.3707ZM521.35 52.6122C522.151 52.6122 522.858 52.4545 523.472 52.1392C524.086 51.8153 524.567 51.3807 524.917 50.8352C525.266 50.2898 525.441 49.6719 525.441 48.9815V46.8977C525.27 47.0085 525.036 47.1108 524.738 47.2045C524.448 47.2898 524.12 47.3707 523.753 47.4474C523.387 47.5156 523.02 47.5795 522.654 47.6392C522.287 47.6903 521.955 47.7372 521.657 47.7798C521.018 47.8736 520.459 48.0227 519.982 48.2273C519.505 48.4318 519.134 48.7088 518.87 49.0582C518.606 49.3991 518.474 49.8253 518.474 50.3366C518.474 51.0781 518.742 51.6449 519.279 52.0369C519.824 52.4205 520.515 52.6122 521.35 52.6122ZM551.412 41.9631L546.426 42.2699C546.341 41.8437 546.157 41.4602 545.876 41.1193C545.595 40.7699 545.224 40.4929 544.764 40.2884C544.312 40.0753 543.771 39.9688 543.14 39.9688C542.297 39.9688 541.585 40.1477 541.006 40.5057C540.426 40.8551 540.136 41.3239 540.136 41.9119C540.136 42.3807 540.324 42.777 540.699 43.1009C541.074 43.4247 541.717 43.6847 542.629 43.8807L546.183 44.5966C548.092 44.9886 549.515 45.6193 550.453 46.4886C551.39 47.358 551.859 48.5 551.859 49.9148C551.859 51.2017 551.48 52.331 550.721 53.3026C549.971 54.2741 548.94 55.0327 547.628 55.5781C546.324 56.1151 544.819 56.3835 543.115 56.3835C540.515 56.3835 538.444 55.8423 536.902 54.7599C535.368 53.669 534.469 52.1861 534.204 50.3111L539.561 50.0298C539.723 50.8224 540.115 51.4276 540.737 51.8452C541.359 52.2543 542.156 52.4588 543.128 52.4588C544.082 52.4588 544.849 52.2756 545.429 51.9091C546.017 51.5341 546.315 51.0526 546.324 50.4645C546.315 49.9702 546.106 49.5653 545.697 49.25C545.288 48.9261 544.657 48.679 543.805 48.5085L540.405 47.831C538.487 47.4474 537.059 46.7827 536.122 45.8366C535.193 44.8906 534.729 43.6847 534.729 42.2188C534.729 40.9574 535.069 39.8707 535.751 38.9588C536.442 38.0469 537.409 37.3438 538.653 36.8494C539.906 36.3551 541.372 36.108 543.051 36.108C545.531 36.108 547.483 36.6321 548.906 37.6804C550.338 38.7287 551.173 40.1562 551.412 41.9631ZM555.289 56V36.3636H560.735V56H555.289ZM558.024 33.8324C557.215 33.8324 556.52 33.5639 555.941 33.027C555.369 32.4815 555.084 31.8295 555.084 31.071C555.084 30.321 555.369 29.6776 555.941 29.1406C556.52 28.5952 557.215 28.3224 558.024 28.3224C558.834 28.3224 559.524 28.5952 560.095 29.1406C560.675 29.6776 560.965 30.321 560.965 31.071C560.965 31.8295 560.675 32.4815 560.095 33.027C559.524 33.5639 558.834 33.8324 558.024 33.8324ZM258.517 107.364V80.3636H263.886V83.6619H264.129C264.368 83.1335 264.713 82.5966 265.165 82.0511C265.625 81.4972 266.222 81.0369 266.955 80.6705C267.696 80.2955 268.616 80.108 269.716 80.108C271.148 80.108 272.469 80.483 273.679 81.233C274.889 81.9744 275.857 83.0952 276.581 84.5952C277.305 86.0866 277.668 87.9574 277.668 90.2074C277.668 92.3977 277.314 94.2472 276.607 95.7557C275.908 97.2557 274.953 98.3935 273.743 99.169C272.541 99.9361 271.195 100.32 269.703 100.32C268.646 100.32 267.747 100.145 267.006 99.7955C266.273 99.446 265.672 99.0071 265.203 98.4787C264.734 97.9418 264.376 97.4006 264.129 96.8551H263.963V107.364H258.517ZM263.848 90.1818C263.848 91.3494 264.01 92.3679 264.334 93.2372C264.658 94.1065 265.126 94.7841 265.74 95.2699C266.354 95.7472 267.099 95.9858 267.977 95.9858C268.864 95.9858 269.614 95.7429 270.227 95.2571C270.841 94.7628 271.305 94.081 271.621 93.2116C271.945 92.3338 272.107 91.3239 272.107 90.1818C272.107 89.0483 271.949 88.0511 271.634 87.1903C271.318 86.3295 270.854 85.6562 270.24 85.1705C269.626 84.6847 268.872 84.4418 267.977 84.4418C267.091 84.4418 266.341 84.6761 265.727 85.1449C265.122 85.6136 264.658 86.2784 264.334 87.1392C264.01 88 263.848 89.0142 263.848 90.1818ZM290.247 100.384C288.227 100.384 286.489 99.9744 285.031 99.1562C283.582 98.3295 282.466 97.1619 281.682 95.6534C280.898 94.1364 280.506 92.3423 280.506 90.2713C280.506 88.2514 280.898 86.4787 281.682 84.9531C282.466 83.4276 283.57 82.2386 284.993 81.3864C286.425 80.5341 288.104 80.108 290.03 80.108C291.325 80.108 292.531 80.3168 293.648 80.7344C294.773 81.1435 295.753 81.7614 296.588 82.5881C297.432 83.4148 298.088 84.4545 298.557 85.7074C299.026 86.9517 299.26 88.4091 299.26 90.0795V91.5753H282.679V88.2003H294.134C294.134 87.4162 293.963 86.7216 293.622 86.1165C293.281 85.5114 292.808 85.0384 292.203 84.6974C291.607 84.348 290.912 84.1733 290.119 84.1733C289.293 84.1733 288.56 84.3651 287.92 84.7486C287.29 85.1236 286.795 85.6307 286.438 86.2699C286.08 86.9006 285.896 87.6037 285.888 88.3793V91.5881C285.888 92.5597 286.067 93.3991 286.425 94.1065C286.791 94.8139 287.307 95.3594 287.972 95.7429C288.636 96.1264 289.425 96.3182 290.337 96.3182C290.942 96.3182 291.496 96.233 291.999 96.0625C292.501 95.892 292.932 95.6364 293.29 95.2955C293.648 94.9545 293.92 94.5369 294.108 94.0426L299.145 94.375C298.889 95.5852 298.365 96.642 297.572 97.5455C296.788 98.4403 295.774 99.1392 294.53 99.642C293.294 100.136 291.866 100.384 290.247 100.384ZM308.26 88.6477V100H302.814V80.3636H308.004V83.8281H308.234C308.669 82.6861 309.398 81.7827 310.42 81.1179C311.443 80.4446 312.683 80.108 314.141 80.108C315.504 80.108 316.693 80.4062 317.707 81.0028C318.722 81.5994 319.51 82.4517 320.072 83.5597C320.635 84.6591 320.916 85.9716 320.916 87.4972V100H315.47V88.4688C315.479 87.267 315.172 86.3295 314.55 85.6562C313.928 84.9744 313.071 84.6335 311.98 84.6335C311.247 84.6335 310.599 84.7912 310.037 85.1065C309.483 85.4219 309.048 85.8821 308.733 86.4872C308.426 87.0838 308.268 87.804 308.26 88.6477ZM332.444 100.32C330.953 100.32 329.602 99.9361 328.392 99.169C327.19 98.3935 326.235 97.2557 325.528 95.7557C324.829 94.2472 324.48 92.3977 324.48 90.2074C324.48 87.9574 324.842 86.0866 325.566 84.5952C326.291 83.0952 327.254 81.9744 328.456 81.233C329.666 80.483 330.991 80.108 332.431 80.108C333.531 80.108 334.447 80.2955 335.18 80.6705C335.922 81.0369 336.518 81.4972 336.97 82.0511C337.43 82.5966 337.779 83.1335 338.018 83.6619H338.184V73.8182H343.618V100H338.248V96.8551H338.018C337.762 97.4006 337.4 97.9418 336.931 98.4787C336.471 99.0071 335.87 99.446 335.129 99.7955C334.396 100.145 333.501 100.32 332.444 100.32ZM334.17 95.9858C335.048 95.9858 335.789 95.7472 336.395 95.2699C337.008 94.7841 337.477 94.1065 337.801 93.2372C338.133 92.3679 338.299 91.3494 338.299 90.1818C338.299 89.0142 338.137 88 337.814 87.1392C337.49 86.2784 337.021 85.6136 336.407 85.1449C335.794 84.6761 335.048 84.4418 334.17 84.4418C333.275 84.4418 332.521 84.6847 331.907 85.1705C331.294 85.6562 330.829 86.3295 330.514 87.1903C330.199 88.0511 330.041 89.0483 330.041 90.1818C330.041 91.3239 330.199 92.3338 330.514 93.2116C330.838 94.081 331.302 94.7628 331.907 95.2571C332.521 95.7429 333.275 95.9858 334.17 95.9858ZM348.095 100V80.3636H353.541V100H348.095ZM350.831 77.8324C350.021 77.8324 349.327 77.5639 348.747 77.027C348.176 76.4815 347.891 75.8295 347.891 75.071C347.891 74.321 348.176 73.6776 348.747 73.1406C349.327 72.5952 350.021 72.3224 350.831 72.3224C351.641 72.3224 352.331 72.5952 352.902 73.1406C353.482 73.6776 353.771 74.321 353.771 75.071C353.771 75.8295 353.482 76.4815 352.902 77.027C352.331 77.5639 351.641 77.8324 350.831 77.8324ZM365.14 100.32C363.648 100.32 362.297 99.9361 361.087 99.169C359.885 98.3935 358.931 97.2557 358.223 95.7557C357.525 94.2472 357.175 92.3977 357.175 90.2074C357.175 87.9574 357.537 86.0866 358.262 84.5952C358.986 83.0952 359.949 81.9744 361.151 81.233C362.361 80.483 363.686 80.108 365.127 80.108C366.226 80.108 367.142 80.2955 367.875 80.6705C368.617 81.0369 369.213 81.4972 369.665 82.0511C370.125 82.5966 370.475 83.1335 370.713 83.6619H370.88V73.8182H376.313V100H370.944V96.8551H370.713C370.458 97.4006 370.096 97.9418 369.627 98.4787C369.167 99.0071 368.566 99.446 367.824 99.7955C367.091 100.145 366.196 100.32 365.14 100.32ZM366.865 95.9858C367.743 95.9858 368.485 95.7472 369.09 95.2699C369.703 94.7841 370.172 94.1065 370.496 93.2372C370.828 92.3679 370.995 91.3494 370.995 90.1818C370.995 89.0142 370.833 88 370.509 87.1392C370.185 86.2784 369.716 85.6136 369.103 85.1449C368.489 84.6761 367.743 84.4418 366.865 84.4418C365.971 84.4418 365.216 84.6847 364.603 85.1705C363.989 85.6562 363.525 86.3295 363.209 87.1903C362.894 88.0511 362.736 89.0483 362.736 90.1818C362.736 91.3239 362.894 92.3338 363.209 93.2116C363.533 94.081 363.998 94.7628 364.603 95.2571C365.216 95.7429 365.971 95.9858 366.865 95.9858ZM380.79 100V80.3636H386.237V100H380.79ZM383.526 77.8324C382.717 77.8324 382.022 77.5639 381.442 77.027C380.871 76.4815 380.586 75.8295 380.586 75.071C380.586 74.321 380.871 73.6776 381.442 73.1406C382.022 72.5952 382.717 72.3224 383.526 72.3224C384.336 72.3224 385.026 72.5952 385.597 73.1406C386.177 73.6776 386.467 74.321 386.467 75.071C386.467 75.8295 386.177 76.4815 385.597 77.027C385.026 77.5639 384.336 77.8324 383.526 77.8324ZM395.534 94.3494L395.547 87.8168H396.339L402.629 80.3636H408.88L400.43 90.233H399.139L395.534 94.3494ZM390.599 100V73.8182H396.045V100H390.599ZM402.872 100L397.093 91.4474L400.724 87.5994L409.251 100H402.872ZM417.152 100.371C415.899 100.371 414.782 100.153 413.802 99.7188C412.822 99.2756 412.047 98.6236 411.475 97.7628C410.913 96.8935 410.632 95.8111 410.632 94.5156C410.632 93.4247 410.832 92.5085 411.233 91.767C411.633 91.0256 412.179 90.429 412.869 89.9773C413.559 89.5256 414.343 89.1847 415.221 88.9545C416.108 88.7244 417.037 88.5625 418.008 88.4688C419.15 88.3494 420.071 88.2386 420.77 88.1364C421.468 88.0256 421.975 87.8636 422.291 87.6506C422.606 87.4375 422.764 87.1222 422.764 86.7045V86.6278C422.764 85.8182 422.508 85.1918 421.997 84.7486C421.494 84.3054 420.778 84.0838 419.849 84.0838C418.869 84.0838 418.089 84.3011 417.51 84.7358C416.93 85.1619 416.547 85.6989 416.359 86.3466L411.322 85.9375C411.578 84.7443 412.081 83.7131 412.831 82.8438C413.581 81.9659 414.548 81.2926 415.733 80.8239C416.926 80.3466 418.306 80.108 419.875 80.108C420.966 80.108 422.01 80.2358 423.007 80.4915C424.012 80.7472 424.903 81.1435 425.679 81.6804C426.463 82.2173 427.081 82.9077 427.532 83.7514C427.984 84.5866 428.21 85.5881 428.21 86.7557V100H423.045V97.277H422.892C422.576 97.8906 422.154 98.4318 421.626 98.9006C421.098 99.3608 420.463 99.723 419.721 99.9872C418.98 100.243 418.123 100.371 417.152 100.371ZM418.711 96.6122C419.512 96.6122 420.22 96.4545 420.833 96.1392C421.447 95.8153 421.929 95.3807 422.278 94.8352C422.627 94.2898 422.802 93.6719 422.802 92.9815V90.8977C422.632 91.0085 422.397 91.1108 422.099 91.2045C421.809 91.2898 421.481 91.3707 421.115 91.4474C420.748 91.5156 420.382 91.5795 420.015 91.6392C419.649 91.6903 419.316 91.7372 419.018 91.7798C418.379 91.8736 417.821 92.0227 417.343 92.2273C416.866 92.4318 416.495 92.7088 416.231 93.0582C415.967 93.3991 415.835 93.8253 415.835 94.3366C415.835 95.0781 416.103 95.6449 416.64 96.0369C417.186 96.4205 417.876 96.6122 418.711 96.6122ZM437.881 88.6477V100H432.435V80.3636H437.625V83.8281H437.855C438.29 82.6861 439.019 81.7827 440.042 81.1179C441.064 80.4446 442.304 80.108 443.762 80.108C445.125 80.108 446.314 80.4062 447.328 81.0028C448.343 81.5994 449.131 82.4517 449.694 83.5597C450.256 84.6591 450.537 85.9716 450.537 87.4972V100H445.091V88.4688C445.1 87.267 444.793 86.3295 444.171 85.6562C443.549 84.9744 442.692 84.6335 441.601 84.6335C440.868 84.6335 440.221 84.7912 439.658 85.1065C439.104 85.4219 438.669 85.8821 438.354 86.4872C438.047 87.0838 437.89 87.804 437.881 88.6477Z" fill="black"/>
</svg>
