<svg width="710" height="129" viewBox="0 0 710 129" fill="none" xmlns="http://www.w3.org/2000/svg">
<path d="M646.627 0L710 64.5L646.627 129L557 129V0L646.627 0Z" fill="#E2EBCB"/>
<path d="M154 0V129H0L61.6 64.5L0 0L154 0Z" fill="#E2EBCB"/>
<rect x="154" width="404" height="129" fill="#E2EBCB"/>
<path d="M214.276 78V51.8182H224.605C226.591 51.8182 228.283 52.1974 229.68 52.956C231.078 53.706 232.143 54.75 232.876 56.0881C233.618 57.4176 233.989 58.9517 233.989 60.6903C233.989 62.429 233.614 63.9631 232.864 65.2926C232.114 66.6222 231.027 67.6577 229.604 68.3991C228.189 69.1406 226.476 69.5114 224.464 69.5114H217.881V65.0753H223.57C224.635 65.0753 225.513 64.892 226.203 64.5256C226.902 64.1506 227.422 63.6349 227.763 62.9787C228.112 62.3139 228.287 61.5511 228.287 60.6903C228.287 59.821 228.112 59.0625 227.763 58.4148C227.422 57.7585 226.902 57.2514 226.203 56.8935C225.504 56.527 224.618 56.3438 223.544 56.3438H219.811V78H214.276ZM237.482 78V58.3636H242.928V78H237.482ZM240.218 55.8324C239.408 55.8324 238.713 55.5639 238.134 55.027C237.563 54.4815 237.277 53.8295 237.277 53.071C237.277 52.321 237.563 51.6776 238.134 51.1406C238.713 50.5952 239.408 50.3224 240.218 50.3224C241.027 50.3224 241.718 50.5952 242.289 51.1406C242.868 51.6776 243.158 52.321 243.158 53.071C243.158 53.8295 242.868 54.4815 242.289 55.027C241.718 55.5639 241.027 55.8324 240.218 55.8324ZM252.737 51.8182V78H247.29V51.8182H252.737ZM257.099 78V58.3636H262.545V78H257.099ZM259.835 55.8324C259.025 55.8324 258.331 55.5639 257.751 55.027C257.18 54.4815 256.895 53.8295 256.895 53.071C256.895 52.321 257.18 51.6776 257.751 51.1406C258.331 50.5952 259.025 50.3224 259.835 50.3224C260.645 50.3224 261.335 50.5952 261.906 51.1406C262.485 51.6776 262.775 52.321 262.775 53.071C262.775 53.8295 262.485 54.4815 261.906 55.027C261.335 55.5639 260.645 55.8324 259.835 55.8324ZM272.354 66.6477V78H266.908V51.8182H272.2V61.8281H272.43C272.874 60.669 273.589 59.7614 274.578 59.1051C275.567 58.4403 276.807 58.108 278.298 58.108C279.662 58.108 280.851 58.4062 281.865 59.0028C282.888 59.5909 283.68 60.4389 284.243 61.5469C284.814 62.6463 285.095 63.9631 285.087 65.4972V78H279.641V66.4688C279.649 65.2585 279.342 64.3168 278.72 63.6435C278.107 62.9702 277.246 62.6335 276.138 62.6335C275.396 62.6335 274.74 62.7912 274.169 63.1065C273.607 63.4219 273.163 63.8821 272.839 64.4872C272.524 65.0838 272.362 65.804 272.354 66.6477ZM297.705 58.3636H303.151V78.9716C303.151 80.4886 302.852 81.7159 302.256 82.6534C301.659 83.5909 300.803 84.277 299.686 84.7116C298.578 85.1463 297.253 85.3636 295.71 85.3636C295.523 85.3636 295.344 85.3594 295.173 85.3509C294.994 85.3509 294.807 85.3466 294.611 85.3381V81.081C294.756 81.0895 294.884 81.0938 294.994 81.0938C295.097 81.1023 295.207 81.1065 295.327 81.1065C296.205 81.1065 296.818 80.919 297.168 80.544C297.526 80.1776 297.705 79.6236 297.705 78.8821V58.3636ZM300.415 55.8324C299.614 55.8324 298.923 55.5639 298.344 55.027C297.764 54.4815 297.474 53.8295 297.474 53.071C297.474 52.321 297.764 51.6776 298.344 51.1406C298.923 50.5952 299.614 50.3224 300.415 50.3224C301.233 50.3224 301.928 50.5952 302.499 51.1406C303.078 51.6776 303.368 52.321 303.368 53.071C303.368 53.8295 303.078 54.4815 302.499 55.027C301.928 55.5639 301.233 55.8324 300.415 55.8324ZM313.113 78.3707C311.86 78.3707 310.743 78.1534 309.763 77.7188C308.783 77.2756 308.007 76.6236 307.436 75.7628C306.874 74.8935 306.593 73.8111 306.593 72.5156C306.593 71.4247 306.793 70.5085 307.194 69.767C307.594 69.0256 308.14 68.429 308.83 67.9773C309.52 67.5256 310.304 67.1847 311.182 66.9545C312.069 66.7244 312.998 66.5625 313.969 66.4688C315.111 66.3494 316.032 66.2386 316.73 66.1364C317.429 66.0256 317.936 65.8636 318.252 65.6506C318.567 65.4375 318.725 65.1222 318.725 64.7045V64.6278C318.725 63.8182 318.469 63.1918 317.958 62.7486C317.455 62.3054 316.739 62.0838 315.81 62.0838C314.83 62.0838 314.05 62.3011 313.471 62.7358C312.891 63.1619 312.507 63.6989 312.32 64.3466L307.283 63.9375C307.539 62.7443 308.042 61.7131 308.792 60.8438C309.542 59.9659 310.509 59.2926 311.694 58.8239C312.887 58.3466 314.267 58.108 315.836 58.108C316.926 58.108 317.971 58.2358 318.968 58.4915C319.973 58.7472 320.864 59.1435 321.64 59.6804C322.424 60.2173 323.042 60.9077 323.493 61.7514C323.945 62.5866 324.171 63.5881 324.171 64.7557V78H319.006V75.277H318.853C318.537 75.8906 318.115 76.4318 317.587 76.9006C317.059 77.3608 316.424 77.723 315.682 77.9872C314.941 78.2429 314.084 78.3707 313.113 78.3707ZM314.672 74.6122C315.473 74.6122 316.181 74.4545 316.794 74.1392C317.408 73.8153 317.89 73.3807 318.239 72.8352C318.588 72.2898 318.763 71.6719 318.763 70.9815V68.8977C318.593 69.0085 318.358 69.1108 318.06 69.2045C317.77 69.2898 317.442 69.3707 317.076 69.4474C316.709 69.5156 316.343 69.5795 315.976 69.6392C315.61 69.6903 315.277 69.7372 314.979 69.7798C314.34 69.8736 313.782 70.0227 313.304 70.2273C312.827 70.4318 312.456 70.7088 312.192 71.0582C311.928 71.3991 311.796 71.8253 311.796 72.3366C311.796 73.0781 312.064 73.6449 312.601 74.0369C313.147 74.4205 313.837 74.6122 314.672 74.6122ZM333.842 51.8182V78H328.396V51.8182H333.842ZM350.797 69.6392V58.3636H356.243V78H351.014V74.4332H350.81C350.366 75.5838 349.629 76.5085 348.598 77.2074C347.575 77.9062 346.327 78.2557 344.852 78.2557C343.54 78.2557 342.385 77.9574 341.388 77.3608C340.391 76.7642 339.611 75.9162 339.048 74.8168C338.494 73.7173 338.213 72.4006 338.205 70.8665V58.3636H343.651V69.8949C343.659 71.054 343.97 71.9702 344.584 72.6435C345.197 73.3168 346.02 73.6534 347.051 73.6534C347.707 73.6534 348.321 73.5043 348.892 73.206C349.463 72.8991 349.923 72.4474 350.273 71.8509C350.631 71.2543 350.805 70.517 350.797 69.6392ZM360.599 78V58.3636H365.879V61.7898H366.083C366.441 60.571 367.042 59.6506 367.886 59.0284C368.73 58.3977 369.701 58.0824 370.801 58.0824C371.074 58.0824 371.368 58.0994 371.683 58.1335C371.998 58.1676 372.275 58.2145 372.514 58.2741V63.1065C372.258 63.0298 371.904 62.9616 371.453 62.902C371.001 62.8423 370.588 62.8125 370.213 62.8125C369.412 62.8125 368.696 62.9872 368.065 63.3366C367.443 63.6776 366.949 64.1548 366.582 64.7685C366.224 65.3821 366.045 66.0895 366.045 66.8906V78H360.599ZM383.662 78V58.3636H388.852V61.8281H389.082C389.491 60.6776 390.173 59.7699 391.127 59.1051C392.082 58.4403 393.224 58.108 394.554 58.108C395.9 58.108 397.047 58.4446 397.993 59.1179C398.939 59.7827 399.569 60.6861 399.885 61.8281H400.089C400.49 60.7031 401.214 59.804 402.262 59.1307C403.319 58.4489 404.568 58.108 406.008 58.108C407.841 58.108 409.328 58.6918 410.47 59.8594C411.62 61.0185 412.196 62.6634 412.196 64.794V78H406.762V65.8679C406.762 64.777 406.473 63.9588 405.893 63.4134C405.314 62.8679 404.589 62.5952 403.72 62.5952C402.731 62.5952 401.96 62.9105 401.406 63.5412C400.852 64.1634 400.575 64.9858 400.575 66.0085V78H395.295V65.7528C395.295 64.7898 395.018 64.0227 394.464 63.4517C393.919 62.8807 393.199 62.5952 392.304 62.5952C391.699 62.5952 391.153 62.7486 390.667 63.0554C390.19 63.3537 389.811 63.7756 389.529 64.321C389.248 64.858 389.108 65.4886 389.108 66.2131V78H383.662ZM422.097 78.3707C420.844 78.3707 419.728 78.1534 418.748 77.7188C417.767 77.2756 416.992 76.6236 416.421 75.7628C415.858 74.8935 415.577 73.8111 415.577 72.5156C415.577 71.4247 415.777 70.5085 416.178 69.767C416.578 69.0256 417.124 68.429 417.814 67.9773C418.505 67.5256 419.289 67.1847 420.167 66.9545C421.053 66.7244 421.982 66.5625 422.953 66.4688C424.096 66.3494 425.016 66.2386 425.715 66.1364C426.414 66.0256 426.921 65.8636 427.236 65.6506C427.551 65.4375 427.709 65.1222 427.709 64.7045V64.6278C427.709 63.8182 427.453 63.1918 426.942 62.7486C426.439 62.3054 425.723 62.0838 424.794 62.0838C423.814 62.0838 423.034 62.3011 422.455 62.7358C421.875 63.1619 421.492 63.6989 421.304 64.3466L416.267 63.9375C416.523 62.7443 417.026 61.7131 417.776 60.8438C418.526 59.9659 419.493 59.2926 420.678 58.8239C421.871 58.3466 423.252 58.108 424.82 58.108C425.911 58.108 426.955 58.2358 427.952 58.4915C428.958 58.7472 429.848 59.1435 430.624 59.6804C431.408 60.2173 432.026 60.9077 432.478 61.7514C432.929 62.5866 433.155 63.5881 433.155 64.7557V78H427.99V75.277H427.837C427.522 75.8906 427.1 76.4318 426.571 76.9006C426.043 77.3608 425.408 77.723 424.667 77.9872C423.925 78.2429 423.069 78.3707 422.097 78.3707ZM423.657 74.6122C424.458 74.6122 425.165 74.4545 425.779 74.1392C426.392 73.8153 426.874 73.3807 427.223 72.8352C427.573 72.2898 427.748 71.6719 427.748 70.9815V68.8977C427.577 69.0085 427.343 69.1108 427.044 69.2045C426.755 69.2898 426.426 69.3707 426.06 69.4474C425.694 69.5156 425.327 69.5795 424.961 69.6392C424.594 69.6903 424.262 69.7372 423.963 69.7798C423.324 69.8736 422.766 70.0227 422.289 70.2273C421.811 70.4318 421.441 70.7088 421.176 71.0582C420.912 71.3991 420.78 71.8253 420.78 72.3366C420.78 73.0781 421.049 73.6449 421.586 74.0369C422.131 74.4205 422.821 74.6122 423.657 74.6122ZM453.718 63.9631L448.733 64.2699C448.647 63.8437 448.464 63.4602 448.183 63.1193C447.902 62.7699 447.531 62.4929 447.071 62.2884C446.619 62.0753 446.078 61.9688 445.447 61.9688C444.603 61.9688 443.892 62.1477 443.312 62.5057C442.733 62.8551 442.443 63.3239 442.443 63.9119C442.443 64.3807 442.63 64.777 443.005 65.1009C443.38 65.4247 444.024 65.6847 444.936 65.8807L448.49 66.5966C450.399 66.9886 451.822 67.6193 452.76 68.4886C453.697 69.358 454.166 70.5 454.166 71.9148C454.166 73.2017 453.787 74.331 453.028 75.3026C452.278 76.2741 451.247 77.0327 449.934 77.5781C448.63 78.1151 447.126 78.3835 445.422 78.3835C442.822 78.3835 440.751 77.8423 439.208 76.7599C437.674 75.669 436.775 74.1861 436.511 72.3111L441.868 72.0298C442.029 72.8224 442.422 73.4276 443.044 73.8452C443.666 74.2543 444.463 74.4588 445.434 74.4588C446.389 74.4588 447.156 74.2756 447.735 73.9091C448.324 73.5341 448.622 73.0526 448.63 72.4645C448.622 71.9702 448.413 71.5653 448.004 71.25C447.595 70.9261 446.964 70.679 446.112 70.5085L442.711 69.831C440.794 69.4474 439.366 68.7827 438.429 67.8366C437.5 66.8906 437.035 65.6847 437.035 64.2188C437.035 62.9574 437.376 61.8707 438.058 60.9588C438.748 60.0469 439.716 59.3438 440.96 58.8494C442.213 58.3551 443.679 58.108 445.358 58.108C447.838 58.108 449.789 58.6321 451.213 59.6804C452.645 60.7287 453.48 62.1562 453.718 63.9631ZM470.188 69.6392V58.3636H475.634V78H470.405V74.4332H470.2C469.757 75.5838 469.02 76.5085 467.989 77.2074C466.966 77.9062 465.717 78.2557 464.243 78.2557C462.93 78.2557 461.776 77.9574 460.778 77.3608C459.781 76.7642 459.001 75.9162 458.439 74.8168C457.885 73.7173 457.604 72.4006 457.595 70.8665V58.3636H463.041V69.8949C463.05 71.054 463.361 71.9702 463.974 72.6435C464.588 73.3168 465.411 73.6534 466.442 73.6534C467.098 73.6534 467.712 73.5043 468.283 73.206C468.854 72.8991 469.314 72.4474 469.663 71.8509C470.021 71.2543 470.196 70.517 470.188 69.6392ZM484.924 72.3494L484.937 65.8168H485.73L492.02 58.3636H498.271L489.821 68.233H488.529L484.924 72.3494ZM479.99 78V51.8182H485.436V78H479.99ZM492.262 78L486.484 69.4474L490.115 65.5994L498.642 78H492.262Z" fill="black"/>
</svg>
