<svg width="710" height="129" viewBox="0 0 710 129" fill="none" xmlns="http://www.w3.org/2000/svg">
<path d="M646.627 0L710 64.5L646.627 129L557 129V0L646.627 0Z" fill="#96CBF9"/>
<path d="M154 0V129H0L61.6 64.5L0 0L154 0Z" fill="#96CBF9"/>
<rect x="153" width="404" height="129" fill="#96CBF9"/>
<path d="M194.577 34.3821V29.8182H216.08V34.3821H208.064V56H202.593V34.3821H194.577ZM225.62 56.3835C223.6 56.3835 221.862 55.9744 220.404 55.1562C218.955 54.3295 217.839 53.1619 217.055 51.6534C216.271 50.1364 215.879 48.3423 215.879 46.2713C215.879 44.2514 216.271 42.4787 217.055 40.9531C217.839 39.4276 218.943 38.2386 220.366 37.3864C221.798 36.5341 223.477 36.108 225.403 36.108C226.698 36.108 227.904 36.3168 229.021 36.7344C230.146 37.1435 231.126 37.7614 231.961 38.5881C232.805 39.4148 233.461 40.4545 233.93 41.7074C234.399 42.9517 234.633 44.4091 234.633 46.0795V47.5753H218.052V44.2003H229.507C229.507 43.4162 229.336 42.7216 228.995 42.1165C228.654 41.5114 228.181 41.0384 227.576 40.6974C226.98 40.348 226.285 40.1733 225.492 40.1733C224.666 40.1733 223.933 40.3651 223.294 40.7486C222.663 41.1236 222.169 41.6307 221.811 42.2699C221.453 42.9006 221.269 43.6037 221.261 44.3793V47.5881C221.261 48.5597 221.44 49.3991 221.798 50.1065C222.164 50.8139 222.68 51.3594 223.345 51.7429C224.009 52.1264 224.798 52.3182 225.71 52.3182C226.315 52.3182 226.869 52.233 227.372 52.0625C227.874 51.892 228.305 51.6364 228.663 51.2955C229.021 50.9545 229.294 50.5369 229.481 50.0426L234.518 50.375C234.262 51.5852 233.738 52.642 232.945 53.5455C232.161 54.4403 231.147 55.1392 229.903 55.642C228.667 56.1364 227.24 56.3835 225.62 56.3835ZM243.633 44.6477V56H238.187V36.3636H243.377V39.8281H243.607C244.042 38.6861 244.771 37.7827 245.794 37.1179C246.816 36.4446 248.056 36.108 249.514 36.108C250.877 36.108 252.066 36.4062 253.08 37.0028C254.095 37.5994 254.883 38.4517 255.445 39.5597C256.008 40.6591 256.289 41.9716 256.289 43.4972V56H250.843V44.4688C250.852 43.267 250.545 42.3295 249.923 41.6562C249.301 40.9744 248.444 40.6335 247.353 40.6335C246.62 40.6335 245.972 40.7912 245.41 41.1065C244.856 41.4219 244.421 41.8821 244.106 42.4872C243.799 43.0838 243.642 43.804 243.633 44.6477ZM271.026 36.3636V40.4545H259.201V36.3636H271.026ZM261.885 31.6591H267.331V49.9659C267.331 50.4687 267.408 50.8608 267.562 51.142C267.715 51.4148 267.928 51.6065 268.201 51.7173C268.482 51.8281 268.806 51.8835 269.172 51.8835C269.428 51.8835 269.684 51.8622 269.939 51.8196C270.195 51.7685 270.391 51.7301 270.528 51.7045L271.384 55.7571C271.111 55.8423 270.728 55.9403 270.233 56.0511C269.739 56.1705 269.138 56.2429 268.431 56.2685C267.118 56.3196 265.968 56.1449 264.979 55.7443C263.999 55.3437 263.236 54.7216 262.691 53.8778C262.145 53.0341 261.877 51.9687 261.885 50.6818V31.6591ZM287.166 47.6392V36.3636H292.612V56H287.383V52.4332H287.179C286.736 53.5838 285.998 54.5085 284.967 55.2074C283.944 55.9062 282.696 56.2557 281.221 56.2557C279.909 56.2557 278.754 55.9574 277.757 55.3608C276.76 54.7642 275.98 53.9162 275.417 52.8168C274.863 51.7173 274.582 50.4006 274.574 48.8665V36.3636H280.02V47.8949C280.028 49.054 280.339 49.9702 280.953 50.6435C281.567 51.3168 282.389 51.6534 283.42 51.6534C284.077 51.6534 284.69 51.5043 285.261 51.206C285.832 50.8991 286.292 50.4474 286.642 49.8509C287 49.2543 287.175 48.517 287.166 47.6392ZM301.903 50.3494L301.916 43.8168H302.708L308.998 36.3636H315.249L306.799 46.233H305.508L301.903 50.3494ZM296.968 56V29.8182H302.414V56H296.968ZM309.241 56L303.463 47.4474L307.093 43.5994L315.62 56H309.241ZM323.521 56.3707C322.268 56.3707 321.151 56.1534 320.171 55.7188C319.191 55.2756 318.416 54.6236 317.845 53.7628C317.282 52.8935 317.001 51.8111 317.001 50.5156C317.001 49.4247 317.201 48.5085 317.602 47.767C318.002 47.0256 318.548 46.429 319.238 45.9773C319.928 45.5256 320.713 45.1847 321.59 44.9545C322.477 44.7244 323.406 44.5625 324.377 44.4688C325.519 44.3494 326.44 44.2386 327.139 44.1364C327.838 44.0256 328.345 43.8636 328.66 43.6506C328.975 43.4375 329.133 43.1222 329.133 42.7045V42.6278C329.133 41.8182 328.877 41.1918 328.366 40.7486C327.863 40.3054 327.147 40.0838 326.218 40.0838C325.238 40.0838 324.458 40.3011 323.879 40.7358C323.299 41.1619 322.916 41.6989 322.728 42.3466L317.691 41.9375C317.947 40.7443 318.45 39.7131 319.2 38.8438C319.95 37.9659 320.917 37.2926 322.102 36.8239C323.295 36.3466 324.676 36.108 326.244 36.108C327.335 36.108 328.379 36.2358 329.376 36.4915C330.382 36.7472 331.272 37.1435 332.048 37.6804C332.832 38.2173 333.45 38.9077 333.901 39.7514C334.353 40.5866 334.579 41.5881 334.579 42.7557V56H329.414V53.277H329.261C328.945 53.8906 328.524 54.4318 327.995 54.9006C327.467 55.3608 326.832 55.723 326.09 55.9872C325.349 56.2429 324.492 56.3707 323.521 56.3707ZM325.08 52.6122C325.882 52.6122 326.589 52.4545 327.203 52.1392C327.816 51.8153 328.298 51.3807 328.647 50.8352C328.997 50.2898 329.171 49.6719 329.171 48.9815V46.8977C329.001 47.0085 328.767 47.1108 328.468 47.2045C328.178 47.2898 327.85 47.3707 327.484 47.4474C327.117 47.5156 326.751 47.5795 326.384 47.6392C326.018 47.6903 325.686 47.7372 325.387 47.7798C324.748 47.8736 324.19 48.0227 323.713 48.2273C323.235 48.4318 322.865 48.7088 322.6 49.0582C322.336 49.3991 322.204 49.8253 322.204 50.3366C322.204 51.0781 322.472 51.6449 323.009 52.0369C323.555 52.4205 324.245 52.6122 325.08 52.6122ZM344.25 44.6477V56H338.804V36.3636H343.994V39.8281H344.225C344.659 38.6861 345.388 37.7827 346.411 37.1179C347.433 36.4446 348.673 36.108 350.131 36.108C351.494 36.108 352.683 36.4062 353.698 37.0028C354.712 37.5994 355.5 38.4517 356.063 39.5597C356.625 40.6591 356.906 41.9716 356.906 43.4972V56H351.46V44.4688C351.469 43.267 351.162 42.3295 350.54 41.6562C349.918 40.9744 349.061 40.6335 347.97 40.6335C347.237 40.6335 346.59 40.7912 346.027 41.1065C345.473 41.4219 345.039 41.8821 344.723 42.4872C344.416 43.0838 344.259 43.804 344.25 44.6477ZM369.531 63.3636V36.3636H374.9V39.6619H375.143C375.382 39.1335 375.727 38.5966 376.178 38.0511C376.639 37.4972 377.235 37.0369 377.968 36.6705C378.71 36.2955 379.63 36.108 380.73 36.108C382.161 36.108 383.482 36.483 384.693 37.233C385.903 37.9744 386.87 39.0952 387.595 40.5952C388.319 42.0866 388.681 43.9574 388.681 46.2074C388.681 48.3977 388.328 50.2472 387.62 51.7557C386.921 53.2557 385.967 54.3935 384.757 55.169C383.555 55.9361 382.208 56.3196 380.717 56.3196C379.66 56.3196 378.761 56.1449 378.019 55.7955C377.286 55.446 376.686 55.0071 376.217 54.4787C375.748 53.9418 375.39 53.4006 375.143 52.8551H374.977V63.3636H369.531ZM374.862 46.1818C374.862 47.3494 375.024 48.3679 375.347 49.2372C375.671 50.1065 376.14 50.7841 376.754 51.2699C377.367 51.7472 378.113 51.9858 378.991 51.9858C379.877 51.9858 380.627 51.7429 381.241 51.2571C381.855 50.7628 382.319 50.081 382.634 49.2116C382.958 48.3338 383.12 47.3239 383.12 46.1818C383.12 45.0483 382.963 44.0511 382.647 43.1903C382.332 42.3295 381.867 41.6562 381.254 41.1705C380.64 40.6847 379.886 40.4418 378.991 40.4418C378.105 40.4418 377.355 40.6761 376.741 41.1449C376.136 41.6136 375.671 42.2784 375.347 43.1392C375.024 44 374.862 45.0142 374.862 46.1818ZM392.312 56V36.3636H397.592V39.7898H397.796C398.154 38.571 398.755 37.6506 399.599 37.0284C400.443 36.3977 401.414 36.0824 402.514 36.0824C402.786 36.0824 403.08 36.0994 403.396 36.1335C403.711 36.1676 403.988 36.2145 404.227 36.2741V41.1065C403.971 41.0298 403.617 40.9616 403.166 40.902C402.714 40.8423 402.301 40.8125 401.926 40.8125C401.124 40.8125 400.409 40.9872 399.778 41.3366C399.156 41.6776 398.661 42.1548 398.295 42.7685C397.937 43.3821 397.758 44.0895 397.758 44.8906V56H392.312ZM415.001 56.3835C413.015 56.3835 411.297 55.9616 409.849 55.1179C408.408 54.2656 407.296 53.081 406.512 51.5639C405.728 50.0384 405.336 48.2699 405.336 46.2585C405.336 44.2301 405.728 42.4574 406.512 40.9403C407.296 39.4148 408.408 38.2301 409.849 37.3864C411.297 36.5341 413.015 36.108 415.001 36.108C416.986 36.108 418.699 36.5341 420.14 37.3864C421.589 38.2301 422.705 39.4148 423.489 40.9403C424.273 42.4574 424.665 44.2301 424.665 46.2585C424.665 48.2699 424.273 50.0384 423.489 51.5639C422.705 53.081 421.589 54.2656 420.14 55.1179C418.699 55.9616 416.986 56.3835 415.001 56.3835ZM415.026 52.1648C415.93 52.1648 416.684 51.9091 417.289 51.3977C417.894 50.8778 418.35 50.1705 418.657 49.2756C418.972 48.3807 419.13 47.3622 419.13 46.2202C419.13 45.0781 418.972 44.0597 418.657 43.1648C418.35 42.2699 417.894 41.5625 417.289 41.0426C416.684 40.5227 415.93 40.2628 415.026 40.2628C414.114 40.2628 413.347 40.5227 412.725 41.0426C412.111 41.5625 411.647 42.2699 411.331 43.1648C411.025 44.0597 410.871 45.0781 410.871 46.2202C410.871 47.3622 411.025 48.3807 411.331 49.2756C411.647 50.1705 412.111 50.8778 412.725 51.3977C413.347 51.9091 414.114 52.1648 415.026 52.1648ZM437.053 63.7727C435.289 63.7727 433.776 63.5298 432.515 63.044C431.262 62.5668 430.265 61.9148 429.523 61.0881C428.782 60.2614 428.3 59.3324 428.079 58.3011L433.116 57.6236C433.269 58.0156 433.512 58.3821 433.844 58.723C434.177 59.0639 434.616 59.3366 435.161 59.5412C435.715 59.7543 436.388 59.8608 437.181 59.8608C438.366 59.8608 439.341 59.571 440.108 58.9915C440.884 58.4205 441.272 57.4616 441.272 56.1151V52.5227H441.042C440.803 53.0682 440.445 53.5838 439.968 54.0696C439.491 54.5554 438.877 54.9517 438.127 55.2585C437.377 55.5653 436.482 55.7188 435.442 55.7188C433.968 55.7188 432.626 55.3778 431.415 54.696C430.214 54.0057 429.255 52.9531 428.539 51.5384C427.831 50.1151 427.478 48.3168 427.478 46.1435C427.478 43.919 427.84 42.0611 428.564 40.5696C429.289 39.0781 430.252 37.9616 431.454 37.2202C432.664 36.4787 433.989 36.108 435.43 36.108C436.529 36.108 437.449 36.2955 438.191 36.6705C438.932 37.0369 439.529 37.4972 439.981 38.0511C440.441 38.5966 440.795 39.1335 441.042 39.6619H441.246V36.3636H446.654V56.1918C446.654 57.8622 446.245 59.2599 445.427 60.3849C444.608 61.5099 443.475 62.3537 442.026 62.9162C440.586 63.4872 438.928 63.7727 437.053 63.7727ZM437.168 51.6278C438.046 51.6278 438.787 51.4105 439.393 50.9759C440.006 50.5327 440.475 49.902 440.799 49.0838C441.131 48.2571 441.297 47.2685 441.297 46.1179C441.297 44.9673 441.135 43.9702 440.812 43.1264C440.488 42.2741 440.019 41.6136 439.405 41.1449C438.792 40.6761 438.046 40.4418 437.168 40.4418C436.273 40.4418 435.519 40.6847 434.905 41.1705C434.292 41.6477 433.827 42.3125 433.512 43.1648C433.197 44.017 433.039 45.0014 433.039 46.1179C433.039 47.2514 433.197 48.2315 433.512 49.0582C433.836 49.8764 434.3 50.5114 434.905 50.9631C435.519 51.4062 436.273 51.6278 437.168 51.6278ZM450.988 56V36.3636H456.268V39.7898H456.472C456.83 38.571 457.431 37.6506 458.275 37.0284C459.118 36.3977 460.09 36.0824 461.189 36.0824C461.462 36.0824 461.756 36.0994 462.072 36.1335C462.387 36.1676 462.664 36.2145 462.903 36.2741V41.1065C462.647 41.0298 462.293 40.9616 461.841 40.902C461.39 40.8423 460.976 40.8125 460.601 40.8125C459.8 40.8125 459.084 40.9872 458.454 41.3366C457.831 41.6776 457.337 42.1548 456.971 42.7685C456.613 43.3821 456.434 44.0895 456.434 44.8906V56H450.988ZM470.755 56.3707C469.502 56.3707 468.386 56.1534 467.406 55.7188C466.426 55.2756 465.65 54.6236 465.079 53.7628C464.517 52.8935 464.235 51.8111 464.235 50.5156C464.235 49.4247 464.436 48.5085 464.836 47.767C465.237 47.0256 465.782 46.429 466.472 45.9773C467.163 45.5256 467.947 45.1847 468.825 44.9545C469.711 44.7244 470.64 44.5625 471.612 44.4688C472.754 44.3494 473.674 44.2386 474.373 44.1364C475.072 44.0256 475.579 43.8636 475.894 43.6506C476.21 43.4375 476.367 43.1222 476.367 42.7045V42.6278C476.367 41.8182 476.112 41.1918 475.6 40.7486C475.097 40.3054 474.382 40.0838 473.453 40.0838C472.472 40.0838 471.693 40.3011 471.113 40.7358C470.534 41.1619 470.15 41.6989 469.963 42.3466L464.926 41.9375C465.181 40.7443 465.684 39.7131 466.434 38.8438C467.184 37.9659 468.151 37.2926 469.336 36.8239C470.529 36.3466 471.91 36.108 473.478 36.108C474.569 36.108 475.613 36.2358 476.61 36.4915C477.616 36.7472 478.507 37.1435 479.282 37.6804C480.066 38.2173 480.684 38.9077 481.136 39.7514C481.588 40.5866 481.813 41.5881 481.813 42.7557V56H476.649V53.277H476.495C476.18 53.8906 475.758 54.4318 475.23 54.9006C474.701 55.3608 474.066 55.723 473.325 55.9872C472.583 56.2429 471.727 56.3707 470.755 56.3707ZM472.315 52.6122C473.116 52.6122 473.823 52.4545 474.437 52.1392C475.051 51.8153 475.532 51.3807 475.882 50.8352C476.231 50.2898 476.406 49.6719 476.406 48.9815V46.8977C476.235 47.0085 476.001 47.1108 475.703 47.2045C475.413 47.2898 475.085 47.3707 474.718 47.4474C474.352 47.5156 473.985 47.5795 473.619 47.6392C473.252 47.6903 472.92 47.7372 472.622 47.7798C471.982 47.8736 471.424 48.0227 470.947 48.2273C470.47 48.4318 470.099 48.7088 469.835 49.0582C469.57 49.3991 469.438 49.8253 469.438 50.3366C469.438 51.0781 469.707 51.6449 470.244 52.0369C470.789 52.4205 471.48 52.6122 472.315 52.6122ZM486.039 56V36.3636H491.229V39.8281H491.459C491.868 38.6776 492.55 37.7699 493.504 37.1051C494.459 36.4403 495.601 36.108 496.931 36.108C498.277 36.108 499.423 36.4446 500.369 37.1179C501.316 37.7827 501.946 38.6861 502.262 39.8281H502.466C502.867 38.7031 503.591 37.804 504.639 37.1307C505.696 36.4489 506.945 36.108 508.385 36.108C510.218 36.108 511.705 36.6918 512.847 37.8594C513.997 39.0185 514.573 40.6634 514.573 42.794V56H509.139V43.8679C509.139 42.777 508.85 41.9588 508.27 41.4134C507.691 40.8679 506.966 40.5952 506.097 40.5952C505.108 40.5952 504.337 40.9105 503.783 41.5412C503.229 42.1634 502.952 42.9858 502.952 44.0085V56H497.672V43.7528C497.672 42.7898 497.395 42.0227 496.841 41.4517C496.296 40.8807 495.575 40.5952 494.681 40.5952C494.075 40.5952 493.53 40.7486 493.044 41.0554C492.567 41.3537 492.188 41.7756 491.906 42.321C491.625 42.858 491.485 43.4886 491.485 44.2131V56H486.039ZM239.865 85.9631L234.879 86.2699C234.794 85.8437 234.611 85.4602 234.329 85.1193C234.048 84.7699 233.677 84.4929 233.217 84.2884C232.765 84.0753 232.224 83.9688 231.594 83.9688C230.75 83.9688 230.038 84.1477 229.459 84.5057C228.879 84.8551 228.589 85.3239 228.589 85.9119C228.589 86.3807 228.777 86.777 229.152 87.1009C229.527 87.4247 230.17 87.6847 231.082 87.8807L234.636 88.5966C236.545 88.9886 237.969 89.6193 238.906 90.4886C239.844 91.358 240.312 92.5 240.312 93.9148C240.312 95.2017 239.933 96.331 239.175 97.3026C238.425 98.2741 237.393 99.0327 236.081 99.5781C234.777 100.115 233.273 100.384 231.568 100.384C228.969 100.384 226.898 99.8423 225.355 98.7599C223.821 97.669 222.922 96.1861 222.657 94.3111L228.014 94.0298C228.176 94.8224 228.568 95.4276 229.19 95.8452C229.812 96.2543 230.609 96.4588 231.581 96.4588C232.535 96.4588 233.302 96.2756 233.882 95.9091C234.47 95.5341 234.768 95.0526 234.777 94.4645C234.768 93.9702 234.559 93.5653 234.15 93.25C233.741 92.9261 233.111 92.679 232.258 92.5085L228.858 91.831C226.94 91.4474 225.513 90.7827 224.575 89.8366C223.646 88.8906 223.182 87.6847 223.182 86.2188C223.182 84.9574 223.523 83.8707 224.204 82.9588C224.895 82.0469 225.862 81.3438 227.106 80.8494C228.359 80.3551 229.825 80.108 231.504 80.108C233.984 80.108 235.936 80.6321 237.359 81.6804C238.791 82.7287 239.626 84.1562 239.865 85.9631ZM254.186 80.3636V84.4545H242.361V80.3636H254.186ZM245.046 75.6591H250.492V93.9659C250.492 94.4687 250.568 94.8608 250.722 95.142C250.875 95.4148 251.088 95.6065 251.361 95.7173C251.642 95.8281 251.966 95.8835 252.333 95.8835C252.588 95.8835 252.844 95.8622 253.1 95.8196C253.355 95.7685 253.551 95.7301 253.688 95.7045L254.544 99.7571C254.271 99.8423 253.888 99.9403 253.394 100.051C252.899 100.17 252.298 100.243 251.591 100.268C250.279 100.32 249.128 100.145 248.139 99.7443C247.159 99.3437 246.396 98.7216 245.851 97.8778C245.306 97.0341 245.037 95.9687 245.046 94.6818V75.6591ZM270.326 91.6392V80.3636H275.772V100H270.544V96.4332H270.339C269.896 97.5838 269.159 98.5085 268.127 99.2074C267.105 99.9062 265.856 100.256 264.382 100.256C263.069 100.256 261.914 99.9574 260.917 99.3608C259.92 98.7642 259.14 97.9162 258.578 96.8168C258.024 95.7173 257.742 94.4006 257.734 92.8665V80.3636H263.18V91.8949C263.188 93.054 263.499 93.9702 264.113 94.6435C264.727 95.3168 265.549 95.6534 266.58 95.6534C267.237 95.6534 267.85 95.5043 268.421 95.206C268.992 94.8991 269.453 94.4474 269.802 93.8509C270.16 93.2543 270.335 92.517 270.326 91.6392ZM287.364 100.32C285.873 100.32 284.522 99.9361 283.312 99.169C282.11 98.3935 281.155 97.2557 280.448 95.7557C279.749 94.2472 279.4 92.3977 279.4 90.2074C279.4 87.9574 279.762 86.0866 280.486 84.5952C281.211 83.0952 282.174 81.9744 283.376 81.233C284.586 80.483 285.911 80.108 287.351 80.108C288.451 80.108 289.367 80.2955 290.1 80.6705C290.841 81.0369 291.438 81.4972 291.89 82.0511C292.35 82.5966 292.699 83.1335 292.938 83.6619H293.104V73.8182H298.537V100H293.168V96.8551H292.938C292.682 97.4006 292.32 97.9418 291.851 98.4787C291.391 99.0071 290.79 99.446 290.049 99.7955C289.316 100.145 288.421 100.32 287.364 100.32ZM289.09 95.9858C289.968 95.9858 290.709 95.7472 291.314 95.2699C291.928 94.7841 292.397 94.1065 292.721 93.2372C293.053 92.3679 293.219 91.3494 293.219 90.1818C293.219 89.0142 293.057 88 292.733 87.1392C292.41 86.2784 291.941 85.6136 291.327 85.1449C290.714 84.6761 289.968 84.4418 289.09 84.4418C288.195 84.4418 287.441 84.6847 286.827 85.1705C286.214 85.6562 285.749 86.3295 285.434 87.1903C285.118 88.0511 284.961 89.0483 284.961 90.1818C284.961 91.3239 285.118 92.3338 285.434 93.2116C285.758 94.081 286.222 94.7628 286.827 95.2571C287.441 95.7429 288.195 95.9858 289.09 95.9858ZM303.015 100V80.3636H308.461V100H303.015ZM305.751 77.8324C304.941 77.8324 304.247 77.5639 303.667 77.027C303.096 76.4815 302.811 75.8295 302.811 75.071C302.811 74.321 303.096 73.6776 303.667 73.1406C304.247 72.5952 304.941 72.3224 305.751 72.3224C306.561 72.3224 307.251 72.5952 307.822 73.1406C308.401 73.6776 308.691 74.321 308.691 75.071C308.691 75.8295 308.401 76.4815 307.822 77.027C307.251 77.5639 306.561 77.8324 305.751 77.8324ZM331.715 80.3636V84.4545H319.596V80.3636H331.715ZM322.37 100V78.9446C322.37 77.5213 322.647 76.3409 323.201 75.4034C323.764 74.4659 324.531 73.7628 325.502 73.294C326.474 72.8253 327.578 72.5909 328.813 72.5909C329.649 72.5909 330.411 72.6548 331.102 72.7827C331.801 72.9105 332.32 73.0256 332.661 73.1278L331.69 77.2188C331.477 77.1506 331.213 77.0866 330.897 77.027C330.59 76.9673 330.275 76.9375 329.951 76.9375C329.15 76.9375 328.592 77.125 328.276 77.5C327.961 77.8665 327.803 78.3821 327.803 79.0469V100H322.37ZM339.939 100.371C338.686 100.371 337.569 100.153 336.589 99.7188C335.609 99.2756 334.834 98.6236 334.263 97.7628C333.7 96.8935 333.419 95.8111 333.419 94.5156C333.419 93.4247 333.619 92.5085 334.02 91.767C334.42 91.0256 334.966 90.429 335.656 89.9773C336.346 89.5256 337.131 89.1847 338.008 88.9545C338.895 88.7244 339.824 88.5625 340.795 88.4688C341.937 88.3494 342.858 88.2386 343.557 88.1364C344.256 88.0256 344.763 87.8636 345.078 87.6506C345.393 87.4375 345.551 87.1222 345.551 86.7045V86.6278C345.551 85.8182 345.295 85.1918 344.784 84.7486C344.281 84.3054 343.565 84.0838 342.636 84.0838C341.656 84.0838 340.876 84.3011 340.297 84.7358C339.717 85.1619 339.334 85.6989 339.146 86.3466L334.109 85.9375C334.365 84.7443 334.868 83.7131 335.618 82.8438C336.368 81.9659 337.335 81.2926 338.52 80.8239C339.713 80.3466 341.094 80.108 342.662 80.108C343.753 80.108 344.797 80.2358 345.794 80.4915C346.8 80.7472 347.69 81.1435 348.466 81.6804C349.25 82.2173 349.868 82.9077 350.319 83.7514C350.771 84.5866 350.997 85.5881 350.997 86.7557V100H345.832V97.277H345.679C345.363 97.8906 344.942 98.4318 344.413 98.9006C343.885 99.3608 343.25 99.723 342.508 99.9872C341.767 100.243 340.91 100.371 339.939 100.371ZM341.498 96.6122C342.3 96.6122 343.007 96.4545 343.621 96.1392C344.234 95.8153 344.716 95.3807 345.065 94.8352C345.415 94.2898 345.589 93.6719 345.589 92.9815V90.8977C345.419 91.0085 345.184 91.1108 344.886 91.2045C344.596 91.2898 344.268 91.3707 343.902 91.4474C343.535 91.5156 343.169 91.5795 342.802 91.6392C342.436 91.6903 342.104 91.7372 341.805 91.7798C341.166 91.8736 340.608 92.0227 340.131 92.2273C339.653 92.4318 339.282 92.7088 339.018 93.0582C338.754 93.3991 338.622 93.8253 338.622 94.3366C338.622 95.0781 338.89 95.6449 339.427 96.0369C339.973 96.4205 340.663 96.6122 341.498 96.6122ZM372.826 80.3636L365.961 100H359.824L352.959 80.3636H358.712L362.79 94.4134H362.995L367.06 80.3636H372.826ZM383.852 100.384C381.866 100.384 380.149 99.9616 378.7 99.1179C377.26 98.2656 376.148 97.081 375.363 95.5639C374.579 94.0384 374.187 92.2699 374.187 90.2585C374.187 88.2301 374.579 86.4574 375.363 84.9403C376.148 83.4148 377.26 82.2301 378.7 81.3864C380.149 80.5341 381.866 80.108 383.852 80.108C385.838 80.108 387.551 80.5341 388.991 81.3864C390.44 82.2301 391.557 83.4148 392.341 84.9403C393.125 86.4574 393.517 88.2301 393.517 90.2585C393.517 92.2699 393.125 94.0384 392.341 95.5639C391.557 97.081 390.44 98.2656 388.991 99.1179C387.551 99.9616 385.838 100.384 383.852 100.384ZM383.878 96.1648C384.781 96.1648 385.535 95.9091 386.14 95.3977C386.746 94.8778 387.202 94.1705 387.508 93.2756C387.824 92.3807 387.981 91.3622 387.981 90.2202C387.981 89.0781 387.824 88.0597 387.508 87.1648C387.202 86.2699 386.746 85.5625 386.14 85.0426C385.535 84.5227 384.781 84.2628 383.878 84.2628C382.966 84.2628 382.199 84.5227 381.577 85.0426C380.963 85.5625 380.498 86.2699 380.183 87.1648C379.876 88.0597 379.723 89.0781 379.723 90.2202C379.723 91.3622 379.876 92.3807 380.183 93.2756C380.498 94.1705 380.963 94.8778 381.577 95.3977C382.199 95.9091 382.966 96.1648 383.878 96.1648ZM397.058 100V80.3636H402.338V83.7898H402.542C402.9 82.571 403.501 81.6506 404.345 81.0284C405.189 80.3977 406.16 80.0824 407.26 80.0824C407.532 80.0824 407.827 80.0994 408.142 80.1335C408.457 80.1676 408.734 80.2145 408.973 80.2741V85.1065C408.717 85.0298 408.363 84.9616 407.912 84.902C407.46 84.8423 407.047 84.8125 406.672 84.8125C405.871 84.8125 405.155 84.9872 404.524 85.3366C403.902 85.6776 403.407 86.1548 403.041 86.7685C402.683 87.3821 402.504 88.0895 402.504 88.8906V100H397.058ZM411.789 100V80.3636H417.235V100H411.789ZM414.524 77.8324C413.715 77.8324 413.02 77.5639 412.441 77.027C411.869 76.4815 411.584 75.8295 411.584 75.071C411.584 74.321 411.869 73.6776 412.441 73.1406C413.02 72.5952 413.715 72.3224 414.524 72.3224C415.334 72.3224 416.024 72.5952 416.595 73.1406C417.175 73.6776 417.465 74.321 417.465 75.071C417.465 75.8295 417.175 76.4815 416.595 77.027C416.024 77.5639 415.334 77.8324 414.524 77.8324ZM432.042 80.3636V84.4545H420.216V80.3636H432.042ZM422.901 75.6591H428.347V93.9659C428.347 94.4687 428.424 94.8608 428.577 95.142C428.731 95.4148 428.944 95.6065 429.216 95.7173C429.498 95.8281 429.822 95.8835 430.188 95.8835C430.444 95.8835 430.699 95.8622 430.955 95.8196C431.211 95.7685 431.407 95.7301 431.543 95.7045L432.4 99.7571C432.127 99.8423 431.743 99.9403 431.249 100.051C430.755 100.17 430.154 100.243 429.447 100.268C428.134 100.32 426.983 100.145 425.995 99.7443C425.015 99.3437 424.252 98.7216 423.706 97.8778C423.161 97.0341 422.893 95.9687 422.901 94.6818V75.6591ZM435.589 100V80.3636H440.78V83.8281H441.01C441.419 82.6776 442.101 81.7699 443.055 81.1051C444.01 80.4403 445.152 80.108 446.481 80.108C447.828 80.108 448.974 80.4446 449.92 81.1179C450.866 81.7827 451.497 82.6861 451.812 83.8281H452.017C452.417 82.7031 453.142 81.804 454.19 81.1307C455.247 80.4489 456.496 80.108 457.936 80.108C459.768 80.108 461.256 80.6918 462.398 81.8594C463.548 83.0185 464.123 84.6634 464.123 86.794V100H458.69V87.8679C458.69 86.777 458.4 85.9588 457.821 85.4134C457.241 84.8679 456.517 84.5952 455.648 84.5952C454.659 84.5952 453.888 84.9105 453.334 85.5412C452.78 86.1634 452.503 86.9858 452.503 88.0085V100H447.223V87.7528C447.223 86.7898 446.946 86.0227 446.392 85.4517C445.846 84.8807 445.126 84.5952 444.231 84.5952C443.626 84.5952 443.081 84.7486 442.595 85.0554C442.118 85.3537 441.738 85.7756 441.457 86.321C441.176 86.858 441.035 87.4886 441.035 88.2131V100H435.589ZM481.018 91.6392V80.3636H486.464V100H481.235V96.4332H481.03C480.587 97.5838 479.85 98.5085 478.819 99.2074C477.796 99.9062 476.547 100.256 475.073 100.256C473.76 100.256 472.606 99.9574 471.608 99.3608C470.611 98.7642 469.831 97.9162 469.269 96.8168C468.715 95.7173 468.434 94.4006 468.425 92.8665V80.3636H473.871V91.8949C473.88 93.054 474.191 93.9702 474.805 94.6435C475.418 95.3168 476.241 95.6534 477.272 95.6534C477.928 95.6534 478.542 95.5043 479.113 95.206C479.684 94.8991 480.144 94.4474 480.493 93.8509C480.851 93.2543 481.026 92.517 481.018 91.6392Z" fill="black"/>
</svg>
