<svg width="711" height="129" viewBox="0 0 711 129" fill="none" xmlns="http://www.w3.org/2000/svg">
<path d="M63.3729 129L0 64.5L63.3729 -7.45058e-06H153V129H63.3729Z" fill="#C7CEE1"/>
<path d="M557 129V0H711L649.4 64.5L711 129H557Z" fill="#C7CEE1"/>
<rect x="153" width="404" height="129" fill="#C7CEE1"/>
<path d="M176.731 57V30.8182H182.266V42.3622H182.611L192.033 30.8182H198.668L188.952 42.5412L198.783 57H192.161L184.989 46.2358L182.266 49.5597V57H176.731ZM208.956 57.3835C206.936 57.3835 205.198 56.9744 203.74 56.1562C202.291 55.3295 201.175 54.1619 200.391 52.6534C199.607 51.1364 199.215 49.3423 199.215 47.2713C199.215 45.2514 199.607 43.4787 200.391 41.9531C201.175 40.4276 202.279 39.2386 203.702 38.3864C205.134 37.5341 206.813 37.108 208.739 37.108C210.034 37.108 211.24 37.3168 212.357 37.7344C213.482 38.1435 214.462 38.7614 215.297 39.5881C216.141 40.4148 216.797 41.4545 217.266 42.7074C217.735 43.9517 217.969 45.4091 217.969 47.0795V48.5753H201.388V45.2003H212.843C212.843 44.4162 212.672 43.7216 212.331 43.1165C211.99 42.5114 211.517 42.0384 210.912 41.6974C210.316 41.348 209.621 41.1733 208.828 41.1733C208.002 41.1733 207.269 41.3651 206.629 41.7486C205.999 42.1236 205.504 42.6307 205.146 43.2699C204.789 43.9006 204.605 44.6037 204.597 45.3793V48.5881C204.597 49.5597 204.776 50.3991 205.134 51.1065C205.5 51.8139 206.016 52.3594 206.681 52.7429C207.345 53.1264 208.134 53.3182 209.046 53.3182C209.651 53.3182 210.205 53.233 210.708 53.0625C211.21 52.892 211.641 52.6364 211.999 52.2955C212.357 51.9545 212.629 51.5369 212.817 51.0426L217.854 51.375C217.598 52.5852 217.074 53.642 216.281 54.5455C215.497 55.4403 214.483 56.1392 213.239 56.642C212.003 57.1364 210.575 57.3835 208.956 57.3835ZM226.969 45.6477V57H221.523V37.3636H226.713V40.8281H226.943C227.378 39.6861 228.107 38.7827 229.129 38.1179C230.152 37.4446 231.392 37.108 232.85 37.108C234.213 37.108 235.402 37.4062 236.416 38.0028C237.431 38.5994 238.219 39.4517 238.781 40.5597C239.344 41.6591 239.625 42.9716 239.625 44.4972V57H234.179V45.4688C234.188 44.267 233.881 43.3295 233.259 42.6562C232.637 41.9744 231.78 41.6335 230.689 41.6335C229.956 41.6335 229.308 41.7912 228.746 42.1065C228.192 42.4219 227.757 42.8821 227.442 43.4872C227.135 44.0838 226.977 44.804 226.969 45.6477ZM249.517 57.3707C248.264 57.3707 247.148 57.1534 246.167 56.7188C245.187 56.2756 244.412 55.6236 243.841 54.7628C243.278 53.8935 242.997 52.8111 242.997 51.5156C242.997 50.4247 243.197 49.5085 243.598 48.767C243.998 48.0256 244.544 47.429 245.234 46.9773C245.925 46.5256 246.709 46.1847 247.586 45.9545C248.473 45.7244 249.402 45.5625 250.373 45.4688C251.515 45.3494 252.436 45.2386 253.135 45.1364C253.834 45.0256 254.341 44.8636 254.656 44.6506C254.971 44.4375 255.129 44.1222 255.129 43.7045V43.6278C255.129 42.8182 254.873 42.1918 254.362 41.7486C253.859 41.3054 253.143 41.0838 252.214 41.0838C251.234 41.0838 250.454 41.3011 249.875 41.7358C249.295 42.1619 248.912 42.6989 248.724 43.3466L243.687 42.9375C243.943 41.7443 244.446 40.7131 245.196 39.8438C245.946 38.9659 246.913 38.2926 248.098 37.8239C249.291 37.3466 250.672 37.108 252.24 37.108C253.331 37.108 254.375 37.2358 255.372 37.4915C256.378 37.7472 257.268 38.1435 258.044 38.6804C258.828 39.2173 259.446 39.9077 259.898 40.7514C260.349 41.5866 260.575 42.5881 260.575 43.7557V57H255.41V54.277H255.257C254.942 54.8906 254.52 55.4318 253.991 55.9006C253.463 56.3608 252.828 56.723 252.086 56.9872C251.345 57.2429 250.488 57.3707 249.517 57.3707ZM251.077 53.6122C251.878 53.6122 252.585 53.4545 253.199 53.1392C253.812 52.8153 254.294 52.3807 254.643 51.8352C254.993 51.2898 255.167 50.6719 255.167 49.9815V47.8977C254.997 48.0085 254.763 48.1108 254.464 48.2045C254.175 48.2898 253.846 48.3707 253.48 48.4474C253.113 48.5156 252.747 48.5795 252.381 48.6392C252.014 48.6903 251.682 48.7372 251.383 48.7798C250.744 48.8736 250.186 49.0227 249.709 49.2273C249.231 49.4318 248.861 49.7088 248.596 50.0582C248.332 50.3991 248.2 50.8253 248.2 51.3366C248.2 52.0781 248.469 52.6449 249.006 53.0369C249.551 53.4205 250.241 53.6122 251.077 53.6122ZM270.246 30.8182V57H264.8V30.8182H270.246ZM274.609 57V37.3636H280.055V57H274.609ZM277.345 34.8324C276.535 34.8324 275.84 34.5639 275.261 34.027C274.69 33.4815 274.404 32.8295 274.404 32.071C274.404 31.321 274.69 30.6776 275.261 30.1406C275.84 29.5952 276.535 29.3224 277.345 29.3224C278.154 29.3224 278.845 29.5952 279.416 30.1406C279.995 30.6776 280.285 31.321 280.285 32.071C280.285 32.8295 279.995 33.4815 279.416 34.027C278.845 34.5639 278.154 34.8324 277.345 34.8324ZM289.863 30.8182V57H284.417V30.8182H289.863ZM299.825 57.3707C298.573 57.3707 297.456 57.1534 296.476 56.7188C295.496 56.2756 294.72 55.6236 294.149 54.7628C293.587 53.8935 293.306 52.8111 293.306 51.5156C293.306 50.4247 293.506 49.5085 293.906 48.767C294.307 48.0256 294.852 47.429 295.543 46.9773C296.233 46.5256 297.017 46.1847 297.895 45.9545C298.781 45.7244 299.71 45.5625 300.682 45.4688C301.824 45.3494 302.744 45.2386 303.443 45.1364C304.142 45.0256 304.649 44.8636 304.965 44.6506C305.28 44.4375 305.438 44.1222 305.438 43.7045V43.6278C305.438 42.8182 305.182 42.1918 304.671 41.7486C304.168 41.3054 303.452 41.0838 302.523 41.0838C301.543 41.0838 300.763 41.3011 300.183 41.7358C299.604 42.1619 299.22 42.6989 299.033 43.3466L293.996 42.9375C294.252 41.7443 294.754 40.7131 295.504 39.8438C296.254 38.9659 297.222 38.2926 298.406 37.8239C299.6 37.3466 300.98 37.108 302.548 37.108C303.639 37.108 304.683 37.2358 305.681 37.4915C306.686 37.7472 307.577 38.1435 308.352 38.6804C309.137 39.2173 309.754 39.9077 310.206 40.7514C310.658 41.5866 310.884 42.5881 310.884 43.7557V57H305.719V54.277H305.566C305.25 54.8906 304.828 55.4318 304.3 55.9006C303.771 56.3608 303.137 56.723 302.395 56.9872C301.654 57.2429 300.797 57.3707 299.825 57.3707ZM301.385 53.6122C302.186 53.6122 302.894 53.4545 303.507 53.1392C304.121 52.8153 304.602 52.3807 304.952 51.8352C305.301 51.2898 305.476 50.6719 305.476 49.9815V47.8977C305.306 48.0085 305.071 48.1108 304.773 48.2045C304.483 48.2898 304.155 48.3707 303.789 48.4474C303.422 48.5156 303.056 48.5795 302.689 48.6392C302.323 48.6903 301.99 48.7372 301.692 48.7798C301.053 48.8736 300.494 49.0227 300.017 49.2273C299.54 49.4318 299.169 49.7088 298.905 50.0582C298.641 50.3991 298.509 50.8253 298.509 51.3366C298.509 52.0781 298.777 52.6449 299.314 53.0369C299.86 53.4205 300.55 53.6122 301.385 53.6122ZM320.555 45.6477V57H315.109V30.8182H320.401V40.8281H320.632C321.075 39.669 321.791 38.7614 322.779 38.1051C323.768 37.4403 325.008 37.108 326.499 37.108C327.863 37.108 329.052 37.4062 330.066 38.0028C331.089 38.5909 331.882 39.4389 332.444 40.5469C333.015 41.6463 333.296 42.9631 333.288 44.4972V57H327.842V45.4688C327.85 44.2585 327.544 43.3168 326.921 42.6435C326.308 41.9702 325.447 41.6335 324.339 41.6335C323.597 41.6335 322.941 41.7912 322.37 42.1065C321.808 42.4219 321.365 42.8821 321.041 43.4872C320.725 44.0838 320.563 44.804 320.555 45.6477ZM351.505 57.3707C350.252 57.3707 349.136 57.1534 348.156 56.7188C347.176 56.2756 346.4 55.6236 345.829 54.7628C345.267 53.8935 344.985 52.8111 344.985 51.5156C344.985 50.4247 345.186 49.5085 345.586 48.767C345.987 48.0256 346.532 47.429 347.222 46.9773C347.913 46.5256 348.697 46.1847 349.575 45.9545C350.461 45.7244 351.39 45.5625 352.362 45.4688C353.504 45.3494 354.424 45.2386 355.123 45.1364C355.822 45.0256 356.329 44.8636 356.644 44.6506C356.96 44.4375 357.117 44.1222 357.117 43.7045V43.6278C357.117 42.8182 356.862 42.1918 356.35 41.7486C355.847 41.3054 355.132 41.0838 354.203 41.0838C353.222 41.0838 352.443 41.3011 351.863 41.7358C351.284 42.1619 350.9 42.6989 350.713 43.3466L345.676 42.9375C345.931 41.7443 346.434 40.7131 347.184 39.8438C347.934 38.9659 348.901 38.2926 350.086 37.8239C351.279 37.3466 352.66 37.108 354.228 37.108C355.319 37.108 356.363 37.2358 357.36 37.4915C358.366 37.7472 359.257 38.1435 360.032 38.6804C360.816 39.2173 361.434 39.9077 361.886 40.7514C362.338 41.5866 362.563 42.5881 362.563 43.7557V57H357.399V54.277H357.245C356.93 54.8906 356.508 55.4318 355.98 55.9006C355.451 56.3608 354.816 56.723 354.075 56.9872C353.333 57.2429 352.477 57.3707 351.505 57.3707ZM353.065 53.6122C353.866 53.6122 354.573 53.4545 355.187 53.1392C355.801 52.8153 356.282 52.3807 356.632 51.8352C356.981 51.2898 357.156 50.6719 357.156 49.9815V47.8977C356.985 48.0085 356.751 48.1108 356.453 48.2045C356.163 48.2898 355.835 48.3707 355.468 48.4474C355.102 48.5156 354.735 48.5795 354.369 48.6392C354.002 48.6903 353.67 48.7372 353.372 48.7798C352.732 48.8736 352.174 49.0227 351.697 49.2273C351.22 49.4318 350.849 49.7088 350.585 50.0582C350.32 50.3991 350.188 50.8253 350.188 51.3366C350.188 52.0781 350.457 52.6449 350.994 53.0369C351.539 53.4205 352.23 53.6122 353.065 53.6122ZM371.723 51.3494L371.736 44.8168H372.529L378.818 37.3636H385.07L376.619 47.233H375.328L371.723 51.3494ZM366.789 57V30.8182H372.235V57H366.789ZM379.061 57L373.283 48.4474L376.914 44.5994L385.441 57H379.061ZM395.805 57.3835C393.819 57.3835 392.102 56.9616 390.653 56.1179C389.213 55.2656 388.101 54.081 387.317 52.5639C386.532 51.0384 386.14 49.2699 386.14 47.2585C386.14 45.2301 386.532 43.4574 387.317 41.9403C388.101 40.4148 389.213 39.2301 390.653 38.3864C392.102 37.5341 393.819 37.108 395.805 37.108C397.791 37.108 399.504 37.5341 400.944 38.3864C402.393 39.2301 403.51 40.4148 404.294 41.9403C405.078 43.4574 405.47 45.2301 405.47 47.2585C405.47 49.2699 405.078 51.0384 404.294 52.5639C403.51 54.081 402.393 55.2656 400.944 56.1179C399.504 56.9616 397.791 57.3835 395.805 57.3835ZM395.831 53.1648C396.734 53.1648 397.488 52.9091 398.094 52.3977C398.699 51.8778 399.155 51.1705 399.461 50.2756C399.777 49.3807 399.934 48.3622 399.934 47.2202C399.934 46.0781 399.777 45.0597 399.461 44.1648C399.155 43.2699 398.699 42.5625 398.094 42.0426C397.488 41.5227 396.734 41.2628 395.831 41.2628C394.919 41.2628 394.152 41.5227 393.53 42.0426C392.916 42.5625 392.452 43.2699 392.136 44.1648C391.829 45.0597 391.676 46.0781 391.676 47.2202C391.676 48.3622 391.829 49.3807 392.136 50.2756C392.452 51.1705 392.916 51.8778 393.53 52.3977C394.152 52.9091 394.919 53.1648 395.831 53.1648ZM409.011 57V37.3636H414.202V40.8281H414.432C414.841 39.6776 415.523 38.7699 416.477 38.1051C417.432 37.4403 418.574 37.108 419.903 37.108C421.25 37.108 422.396 37.4446 423.342 38.1179C424.288 38.7827 424.919 39.6861 425.234 40.8281H425.439C425.839 39.7031 426.564 38.804 427.612 38.1307C428.669 37.4489 429.917 37.108 431.358 37.108C433.19 37.108 434.677 37.6918 435.819 38.8594C436.97 40.0185 437.545 41.6634 437.545 43.794V57H432.112V44.8679C432.112 43.777 431.822 42.9588 431.243 42.4134C430.663 41.8679 429.939 41.5952 429.069 41.5952C428.081 41.5952 427.309 41.9105 426.756 42.5412C426.202 43.1634 425.925 43.9858 425.925 45.0085V57H420.645V44.7528C420.645 43.7898 420.368 43.0227 419.814 42.4517C419.268 41.8807 418.548 41.5952 417.653 41.5952C417.048 41.5952 416.503 41.7486 416.017 42.0554C415.54 42.3537 415.16 42.7756 414.879 43.321C414.598 43.858 414.457 44.4886 414.457 45.2131V57H409.011ZM450.719 57.3835C448.733 57.3835 447.016 56.9616 445.567 56.1179C444.127 55.2656 443.015 54.081 442.231 52.5639C441.447 51.0384 441.055 49.2699 441.055 47.2585C441.055 45.2301 441.447 43.4574 442.231 41.9403C443.015 40.4148 444.127 39.2301 445.567 38.3864C447.016 37.5341 448.733 37.108 450.719 37.108C452.705 37.108 454.418 37.5341 455.858 38.3864C457.307 39.2301 458.424 40.4148 459.208 41.9403C459.992 43.4574 460.384 45.2301 460.384 47.2585C460.384 49.2699 459.992 51.0384 459.208 52.5639C458.424 54.081 457.307 55.2656 455.858 56.1179C454.418 56.9616 452.705 57.3835 450.719 57.3835ZM450.745 53.1648C451.648 53.1648 452.403 52.9091 453.008 52.3977C453.613 51.8778 454.069 51.1705 454.376 50.2756C454.691 49.3807 454.849 48.3622 454.849 47.2202C454.849 46.0781 454.691 45.0597 454.376 44.1648C454.069 43.2699 453.613 42.5625 453.008 42.0426C452.403 41.5227 451.648 41.2628 450.745 41.2628C449.833 41.2628 449.066 41.5227 448.444 42.0426C447.83 42.5625 447.366 43.2699 447.05 44.1648C446.743 45.0597 446.59 46.0781 446.59 47.2202C446.59 48.3622 446.743 49.3807 447.05 50.2756C447.366 51.1705 447.83 51.8778 448.444 52.3977C449.066 52.9091 449.833 53.1648 450.745 53.1648ZM471.161 57.3196C469.67 57.3196 468.319 56.9361 467.108 56.169C465.907 55.3935 464.952 54.2557 464.245 52.7557C463.546 51.2472 463.197 49.3977 463.197 47.2074C463.197 44.9574 463.559 43.0866 464.283 41.5952C465.008 40.0952 465.971 38.9744 467.172 38.233C468.383 37.483 469.708 37.108 471.148 37.108C472.248 37.108 473.164 37.2955 473.897 37.6705C474.638 38.0369 475.235 38.4972 475.687 39.0511C476.147 39.5966 476.496 40.1335 476.735 40.6619H476.901V30.8182H482.334V57H476.965V53.8551H476.735C476.479 54.4006 476.117 54.9418 475.648 55.4787C475.188 56.0071 474.587 56.446 473.846 56.7955C473.113 57.1449 472.218 57.3196 471.161 57.3196ZM472.887 52.9858C473.765 52.9858 474.506 52.7472 475.111 52.2699C475.725 51.7841 476.194 51.1065 476.518 50.2372C476.85 49.3679 477.016 48.3494 477.016 47.1818C477.016 46.0142 476.854 45 476.53 44.1392C476.206 43.2784 475.738 42.6136 475.124 42.1449C474.51 41.6761 473.765 41.4418 472.887 41.4418C471.992 41.4418 471.238 41.6847 470.624 42.1705C470.01 42.6562 469.546 43.3295 469.231 44.1903C468.915 45.0511 468.758 46.0483 468.758 47.1818C468.758 48.3239 468.915 49.3338 469.231 50.2116C469.555 51.081 470.019 51.7628 470.624 52.2571C471.238 52.7429 471.992 52.9858 472.887 52.9858ZM492.411 57.3707C491.159 57.3707 490.042 57.1534 489.062 56.7188C488.082 56.2756 487.306 55.6236 486.735 54.7628C486.173 53.8935 485.892 52.8111 485.892 51.5156C485.892 50.4247 486.092 49.5085 486.492 48.767C486.893 48.0256 487.438 47.429 488.129 46.9773C488.819 46.5256 489.603 46.1847 490.481 45.9545C491.367 45.7244 492.296 45.5625 493.268 45.4688C494.41 45.3494 495.33 45.2386 496.029 45.1364C496.728 45.0256 497.235 44.8636 497.551 44.6506C497.866 44.4375 498.024 44.1222 498.024 43.7045V43.6278C498.024 42.8182 497.768 42.1918 497.257 41.7486C496.754 41.3054 496.038 41.0838 495.109 41.0838C494.129 41.0838 493.349 41.3011 492.769 41.7358C492.19 42.1619 491.806 42.6989 491.619 43.3466L486.582 42.9375C486.838 41.7443 487.34 40.7131 488.09 39.8438C488.84 38.9659 489.808 38.2926 490.992 37.8239C492.186 37.3466 493.566 37.108 495.134 37.108C496.225 37.108 497.269 37.2358 498.267 37.4915C499.272 37.7472 500.163 38.1435 500.938 38.6804C501.722 39.2173 502.34 39.9077 502.792 40.7514C503.244 41.5866 503.47 42.5881 503.47 43.7557V57H498.305V54.277H498.151C497.836 54.8906 497.414 55.4318 496.886 55.9006C496.357 56.3608 495.722 56.723 494.981 56.9872C494.24 57.2429 493.383 57.3707 492.411 57.3707ZM493.971 53.6122C494.772 53.6122 495.48 53.4545 496.093 53.1392C496.707 52.8153 497.188 52.3807 497.538 51.8352C497.887 51.2898 498.062 50.6719 498.062 49.9815V47.8977C497.892 48.0085 497.657 48.1108 497.359 48.2045C497.069 48.2898 496.741 48.3707 496.374 48.4474C496.008 48.5156 495.642 48.5795 495.275 48.6392C494.909 48.6903 494.576 48.7372 494.278 48.7798C493.639 48.8736 493.08 49.0227 492.603 49.2273C492.126 49.4318 491.755 49.7088 491.491 50.0582C491.227 50.3991 491.095 50.8253 491.095 51.3366C491.095 52.0781 491.363 52.6449 491.9 53.0369C492.445 53.4205 493.136 53.6122 493.971 53.6122ZM524.033 42.9631L519.047 43.2699C518.962 42.8437 518.779 42.4602 518.497 42.1193C518.216 41.7699 517.845 41.4929 517.385 41.2884C516.933 41.0753 516.392 40.9688 515.762 40.9688C514.918 40.9688 514.206 41.1477 513.627 41.5057C513.047 41.8551 512.757 42.3239 512.757 42.9119C512.757 43.3807 512.945 43.777 513.32 44.1009C513.695 44.4247 514.338 44.6847 515.25 44.8807L518.804 45.5966C520.713 45.9886 522.137 46.6193 523.074 47.4886C524.012 48.358 524.48 49.5 524.48 50.9148C524.48 52.2017 524.101 53.331 523.343 54.3026C522.593 55.2741 521.561 56.0327 520.249 56.5781C518.945 57.1151 517.441 57.3835 515.736 57.3835C513.137 57.3835 511.066 56.8423 509.523 55.7599C507.989 54.669 507.09 53.1861 506.825 51.3111L512.182 51.0298C512.344 51.8224 512.736 52.4276 513.358 52.8452C513.98 53.2543 514.777 53.4588 515.749 53.4588C516.703 53.4588 517.47 53.2756 518.05 52.9091C518.638 52.5341 518.936 52.0526 518.945 51.4645C518.936 50.9702 518.727 50.5653 518.318 50.25C517.909 49.9261 517.279 49.679 516.426 49.5085L513.026 48.831C511.108 48.4474 509.681 47.7827 508.743 46.8366C507.814 45.8906 507.35 44.6847 507.35 43.2188C507.35 41.9574 507.691 40.8707 508.372 39.9588C509.063 39.0469 510.03 38.3438 511.274 37.8494C512.527 37.3551 513.993 37.108 515.672 37.108C518.152 37.108 520.104 37.6321 521.527 38.6804C522.959 39.7287 523.794 41.1562 524.033 42.9631ZM527.91 57V37.3636H533.356V57H527.91ZM530.645 34.8324C529.836 34.8324 529.141 34.5639 528.562 34.027C527.991 33.4815 527.705 32.8295 527.705 32.071C527.705 31.321 527.991 30.6776 528.562 30.1406C529.141 29.5952 529.836 29.3224 530.645 29.3224C531.455 29.3224 532.145 29.5952 532.716 30.1406C533.296 30.6776 533.586 31.321 533.586 32.071C533.586 32.8295 533.296 33.4815 532.716 34.027C532.145 34.5639 531.455 34.8324 530.645 34.8324ZM210.65 86.9631L205.664 87.2699C205.579 86.8437 205.396 86.4602 205.115 86.1193C204.833 85.7699 204.463 85.4929 204.002 85.2884C203.551 85.0753 203.009 84.9688 202.379 84.9688C201.535 84.9688 200.823 85.1477 200.244 85.5057C199.664 85.8551 199.374 86.3239 199.374 86.9119C199.374 87.3807 199.562 87.777 199.937 88.1009C200.312 88.4247 200.955 88.6847 201.867 88.8807L205.421 89.5966C207.33 89.9886 208.754 90.6193 209.691 91.4886C210.629 92.358 211.097 93.5 211.097 94.9148C211.097 96.2017 210.718 97.331 209.96 98.3026C209.21 99.2741 208.178 100.033 206.866 100.578C205.562 101.115 204.058 101.384 202.353 101.384C199.754 101.384 197.683 100.842 196.14 99.7599C194.606 98.669 193.707 97.1861 193.443 95.3111L198.799 95.0298C198.961 95.8224 199.353 96.4276 199.975 96.8452C200.597 97.2543 201.394 97.4588 202.366 97.4588C203.32 97.4588 204.088 97.2756 204.667 96.9091C205.255 96.5341 205.553 96.0526 205.562 95.4645C205.553 94.9702 205.345 94.5653 204.936 94.25C204.526 93.9261 203.896 93.679 203.044 93.5085L199.643 92.831C197.725 92.4474 196.298 91.7827 195.36 90.8366C194.431 89.8906 193.967 88.6847 193.967 87.2188C193.967 85.9574 194.308 84.8707 194.99 83.9588C195.68 83.0469 196.647 82.3438 197.892 81.8494C199.144 81.3551 200.61 81.108 202.289 81.108C204.769 81.108 206.721 81.6321 208.144 82.6804C209.576 83.7287 210.411 85.1562 210.65 86.9631ZM223.476 101.384C221.456 101.384 219.717 100.974 218.26 100.156C216.811 99.3295 215.694 98.1619 214.91 96.6534C214.126 95.1364 213.734 93.3423 213.734 91.2713C213.734 89.2514 214.126 87.4787 214.91 85.9531C215.694 84.4276 216.798 83.2386 218.221 82.3864C219.653 81.5341 221.332 81.108 223.258 81.108C224.554 81.108 225.76 81.3168 226.876 81.7344C228.001 82.1435 228.981 82.7614 229.817 83.5881C230.66 84.4148 231.317 85.4545 231.785 86.7074C232.254 87.9517 232.488 89.4091 232.488 91.0795V92.5753H215.907V89.2003H227.362C227.362 88.4162 227.192 87.7216 226.851 87.1165C226.51 86.5114 226.037 86.0384 225.432 85.6974C224.835 85.348 224.14 85.1733 223.348 85.1733C222.521 85.1733 221.788 85.3651 221.149 85.7486C220.518 86.1236 220.024 86.6307 219.666 87.2699C219.308 87.9006 219.125 88.6037 219.116 89.3793V92.5881C219.116 93.5597 219.295 94.3991 219.653 95.1065C220.02 95.8139 220.535 96.3594 221.2 96.7429C221.865 97.1264 222.653 97.3182 223.565 97.3182C224.17 97.3182 224.724 97.233 225.227 97.0625C225.73 96.892 226.16 96.6364 226.518 96.2955C226.876 95.9545 227.149 95.5369 227.336 95.0426L232.373 95.375C232.118 96.5852 231.594 97.642 230.801 98.5455C230.017 99.4403 229.003 100.139 227.758 100.642C226.523 101.136 225.095 101.384 223.476 101.384ZM240.977 95.3494L240.99 88.8168H241.782L248.072 81.3636H254.324L245.873 91.233H244.582L240.977 95.3494ZM236.042 101V74.8182H241.488V101H236.042ZM248.315 101L242.537 92.4474L246.167 88.5994L254.694 101H248.315ZM256.996 101V81.3636H262.442V101H256.996ZM259.731 78.8324C258.922 78.8324 258.227 78.5639 257.648 78.027C257.077 77.4815 256.791 76.8295 256.791 76.071C256.791 75.321 257.077 74.6776 257.648 74.1406C258.227 73.5952 258.922 73.3224 259.731 73.3224C260.541 73.3224 261.231 73.5952 261.802 74.1406C262.382 74.6776 262.672 75.321 262.672 76.071C262.672 76.8295 262.382 77.4815 261.802 78.027C261.231 78.5639 260.541 78.8324 259.731 78.8324ZM277.249 81.3636V85.4545H265.423V81.3636H277.249ZM268.108 76.6591H273.554V94.9659C273.554 95.4687 273.631 95.8608 273.784 96.142C273.938 96.4148 274.151 96.6065 274.423 96.7173C274.705 96.8281 275.029 96.8835 275.395 96.8835C275.651 96.8835 275.906 96.8622 276.162 96.8196C276.418 96.7685 276.614 96.7301 276.75 96.7045L277.607 100.757C277.334 100.842 276.95 100.94 276.456 101.051C275.962 101.17 275.361 101.243 274.654 101.268C273.341 101.32 272.191 101.145 271.202 100.744C270.222 100.344 269.459 99.7216 268.914 98.8778C268.368 98.0341 268.1 96.9687 268.108 95.6818V76.6591ZM286.396 101.371C285.143 101.371 284.026 101.153 283.046 100.719C282.066 100.276 281.291 99.6236 280.72 98.7628C280.157 97.8935 279.876 96.8111 279.876 95.5156C279.876 94.4247 280.076 93.5085 280.477 92.767C280.877 92.0256 281.423 91.429 282.113 90.9773C282.803 90.5256 283.588 90.1847 284.465 89.9545C285.352 89.7244 286.281 89.5625 287.252 89.4688C288.394 89.3494 289.315 89.2386 290.014 89.1364C290.713 89.0256 291.22 88.8636 291.535 88.6506C291.85 88.4375 292.008 88.1222 292.008 87.7045V87.6278C292.008 86.8182 291.752 86.1918 291.241 85.7486C290.738 85.3054 290.022 85.0838 289.093 85.0838C288.113 85.0838 287.333 85.3011 286.754 85.7358C286.174 86.1619 285.791 86.6989 285.603 87.3466L280.566 86.9375C280.822 85.7443 281.325 84.7131 282.075 83.8438C282.825 82.9659 283.792 82.2926 284.977 81.8239C286.17 81.3466 287.551 81.108 289.119 81.108C290.21 81.108 291.254 81.2358 292.251 81.4915C293.257 81.7472 294.147 82.1435 294.923 82.6804C295.707 83.2173 296.325 83.9077 296.776 84.7514C297.228 85.5866 297.454 86.5881 297.454 87.7557V101H292.289V98.277H292.136C291.82 98.8906 291.399 99.4318 290.87 99.9006C290.342 100.361 289.707 100.723 288.965 100.987C288.224 101.243 287.367 101.371 286.396 101.371ZM287.955 97.6122C288.757 97.6122 289.464 97.4545 290.078 97.1392C290.691 96.8153 291.173 96.3807 291.522 95.8352C291.872 95.2898 292.046 94.6719 292.046 93.9815V91.8977C291.876 92.0085 291.642 92.1108 291.343 92.2045C291.053 92.2898 290.725 92.3707 290.359 92.4474C289.992 92.5156 289.626 92.5795 289.259 92.6392C288.893 92.6903 288.561 92.7372 288.262 92.7798C287.623 92.8736 287.065 93.0227 286.588 93.2273C286.11 93.4318 285.74 93.7088 285.475 94.0582C285.211 94.3991 285.079 94.8253 285.079 95.3366C285.079 96.0781 285.347 96.6449 285.884 97.0369C286.43 97.4205 287.12 97.6122 287.955 97.6122ZM301.679 101V81.3636H306.959V84.7898H307.164C307.521 83.571 308.122 82.6506 308.966 82.0284C309.81 81.3977 310.781 81.0824 311.881 81.0824C312.154 81.0824 312.448 81.0994 312.763 81.1335C313.078 81.1676 313.355 81.2145 313.594 81.2741V86.1065C313.338 86.0298 312.985 85.9616 312.533 85.902C312.081 85.8423 311.668 85.8125 311.293 85.8125C310.492 85.8125 309.776 85.9872 309.145 86.3366C308.523 86.6776 308.029 87.1548 307.662 87.7685C307.304 88.3821 307.125 89.0895 307.125 89.8906V101H301.679ZM329.676 95.3494L329.689 88.8168H330.482L336.771 81.3636H343.023L334.573 91.233H333.281L329.676 95.3494ZM324.742 101V74.8182H330.188V101H324.742ZM337.014 101L331.236 92.4474L334.867 88.5994L343.394 101H337.014ZM351.294 101.371C350.041 101.371 348.925 101.153 347.945 100.719C346.965 100.276 346.189 99.6236 345.618 98.7628C345.056 97.8935 344.774 96.8111 344.774 95.5156C344.774 94.4247 344.975 93.5085 345.375 92.767C345.776 92.0256 346.321 91.429 347.012 90.9773C347.702 90.5256 348.486 90.1847 349.364 89.9545C350.25 89.7244 351.179 89.5625 352.151 89.4688C353.293 89.3494 354.213 89.2386 354.912 89.1364C355.611 89.0256 356.118 88.8636 356.433 88.6506C356.749 88.4375 356.906 88.1222 356.906 87.7045V87.6278C356.906 86.8182 356.651 86.1918 356.139 85.7486C355.637 85.3054 354.921 85.0838 353.992 85.0838C353.012 85.0838 352.232 85.3011 351.652 85.7358C351.073 86.1619 350.689 86.6989 350.502 87.3466L345.465 86.9375C345.72 85.7443 346.223 84.7131 346.973 83.8438C347.723 82.9659 348.691 82.2926 349.875 81.8239C351.068 81.3466 352.449 81.108 354.017 81.108C355.108 81.108 356.152 81.2358 357.149 81.4915C358.155 81.7472 359.046 82.1435 359.821 82.6804C360.605 83.2173 361.223 83.9077 361.675 84.7514C362.127 85.5866 362.352 86.5881 362.352 87.7557V101H357.188V98.277H357.034C356.719 98.8906 356.297 99.4318 355.769 99.9006C355.24 100.361 354.605 100.723 353.864 100.987C353.122 101.243 352.266 101.371 351.294 101.371ZM352.854 97.6122C353.655 97.6122 354.362 97.4545 354.976 97.1392C355.59 96.8153 356.071 96.3807 356.421 95.8352C356.77 95.2898 356.945 94.6719 356.945 93.9815V91.8977C356.774 92.0085 356.54 92.1108 356.242 92.2045C355.952 92.2898 355.624 92.3707 355.257 92.4474C354.891 92.5156 354.524 92.5795 354.158 92.6392C353.791 92.6903 353.459 92.7372 353.161 92.7798C352.521 92.8736 351.963 93.0227 351.486 93.2273C351.009 93.4318 350.638 93.7088 350.374 94.0582C350.11 94.3991 349.977 94.8253 349.977 95.3366C349.977 96.0781 350.246 96.6449 350.783 97.0369C351.328 97.4205 352.019 97.6122 352.854 97.6122ZM366.578 101V81.3636H371.768V84.8281H371.998C372.407 83.6776 373.089 82.7699 374.044 82.1051C374.998 81.4403 376.14 81.108 377.47 81.108C378.816 81.108 379.963 81.4446 380.909 82.1179C381.855 82.7827 382.485 83.6861 382.801 84.8281H383.005C383.406 83.7031 384.13 82.804 385.178 82.1307C386.235 81.4489 387.484 81.108 388.924 81.108C390.757 81.108 392.244 81.6918 393.386 82.8594C394.536 84.0185 395.112 85.6634 395.112 87.794V101H389.678V88.8679C389.678 87.777 389.389 86.9588 388.809 86.4134C388.23 85.8679 387.505 85.5952 386.636 85.5952C385.647 85.5952 384.876 85.9105 384.322 86.5412C383.768 87.1634 383.491 87.9858 383.491 89.0085V101H378.211V88.7528C378.211 87.7898 377.934 87.0227 377.38 86.4517C376.835 85.8807 376.115 85.5952 375.22 85.5952C374.615 85.5952 374.069 85.7486 373.583 86.0554C373.106 86.3537 372.727 86.7756 372.445 87.321C372.164 87.858 372.024 88.4886 372.024 89.2131V101H366.578ZM399.414 108.364V81.3636H404.783V84.6619H405.026C405.264 84.1335 405.61 83.5966 406.061 83.0511C406.521 82.4972 407.118 82.0369 407.851 81.6705C408.593 81.2955 409.513 81.108 410.612 81.108C412.044 81.108 413.365 81.483 414.575 82.233C415.786 82.9744 416.753 84.0952 417.477 85.5952C418.202 87.0866 418.564 88.9574 418.564 91.2074C418.564 93.3977 418.21 95.2472 417.503 96.7557C416.804 98.2557 415.85 99.3935 414.639 100.169C413.438 100.936 412.091 101.32 410.6 101.32C409.543 101.32 408.644 101.145 407.902 100.795C407.169 100.446 406.568 100.007 406.1 99.4787C405.631 98.9418 405.273 98.4006 405.026 97.8551H404.86V108.364H399.414ZM404.744 91.1818C404.744 92.3494 404.906 93.3679 405.23 94.2372C405.554 95.1065 406.023 95.7841 406.637 96.2699C407.25 96.7472 407.996 96.9858 408.874 96.9858C409.76 96.9858 410.51 96.7429 411.124 96.2571C411.737 95.7628 412.202 95.081 412.517 94.2116C412.841 93.3338 413.003 92.3239 413.003 91.1818C413.003 90.0483 412.845 89.0511 412.53 88.1903C412.215 87.3295 411.75 86.6562 411.137 86.1705C410.523 85.6847 409.769 85.4418 408.874 85.4418C407.987 85.4418 407.237 85.6761 406.624 86.1449C406.019 86.6136 405.554 87.2784 405.23 88.1392C404.906 89 404.744 90.0142 404.744 91.1818ZM434.787 92.6392V81.3636H440.233V101H435.004V97.4332H434.8C434.357 98.5838 433.619 99.5085 432.588 100.207C431.566 100.906 430.317 101.256 428.843 101.256C427.53 101.256 426.375 100.957 425.378 100.361C424.381 99.7642 423.601 98.9162 423.039 97.8168C422.485 96.7173 422.203 95.4006 422.195 93.8665V81.3636H427.641V92.8949C427.649 94.054 427.96 94.9702 428.574 95.6435C429.188 96.3168 430.01 96.6534 431.041 96.6534C431.698 96.6534 432.311 96.5043 432.882 96.206C433.453 95.8991 433.914 95.4474 434.263 94.8509C434.621 94.2543 434.796 93.517 434.787 92.6392ZM460.927 86.9631L455.942 87.2699C455.856 86.8437 455.673 86.4602 455.392 86.1193C455.111 85.7699 454.74 85.4929 454.28 85.2884C453.828 85.0753 453.287 84.9688 452.656 84.9688C451.812 84.9688 451.101 85.1477 450.521 85.5057C449.942 85.8551 449.652 86.3239 449.652 86.9119C449.652 87.3807 449.839 87.777 450.214 88.1009C450.589 88.4247 451.233 88.6847 452.145 88.8807L455.699 89.5966C457.608 89.9886 459.031 90.6193 459.969 91.4886C460.906 92.358 461.375 93.5 461.375 94.9148C461.375 96.2017 460.996 97.331 460.237 98.3026C459.487 99.2741 458.456 100.033 457.143 100.578C455.839 101.115 454.335 101.384 452.631 101.384C450.031 101.384 447.96 100.842 446.417 99.7599C444.883 98.669 443.984 97.1861 443.72 95.3111L449.077 95.0298C449.238 95.8224 449.631 96.4276 450.253 96.8452C450.875 97.2543 451.672 97.4588 452.643 97.4588C453.598 97.4588 454.365 97.2756 454.944 96.9091C455.532 96.5341 455.831 96.0526 455.839 95.4645C455.831 94.9702 455.622 94.5653 455.213 94.25C454.804 93.9261 454.173 93.679 453.321 93.5085L449.92 92.831C448.003 92.4474 446.575 91.7827 445.638 90.8366C444.709 89.8906 444.244 88.6847 444.244 87.2188C444.244 85.9574 444.585 84.8707 445.267 83.9588C445.957 83.0469 446.925 82.3438 448.169 81.8494C449.422 81.3551 450.888 81.108 452.567 81.108C455.047 81.108 456.998 81.6321 458.422 82.6804C459.854 83.7287 460.689 85.1562 460.927 86.9631ZM464.804 101V81.3636H469.994V84.8281H470.225C470.634 83.6776 471.316 82.7699 472.27 82.1051C473.225 81.4403 474.367 81.108 475.696 81.108C477.043 81.108 478.189 81.4446 479.135 82.1179C480.081 82.7827 480.712 83.6861 481.027 84.8281H481.232C481.632 83.7031 482.357 82.804 483.405 82.1307C484.462 81.4489 485.71 81.108 487.151 81.108C488.983 81.108 490.47 81.6918 491.612 82.8594C492.763 84.0185 493.338 85.6634 493.338 87.794V101H487.905V88.8679C487.905 87.777 487.615 86.9588 487.036 86.4134C486.456 85.8679 485.732 85.5952 484.862 85.5952C483.874 85.5952 483.102 85.9105 482.548 86.5412C481.994 87.1634 481.718 87.9858 481.718 89.0085V101H476.438V88.7528C476.438 87.7898 476.161 87.0227 475.607 86.4517C475.061 85.8807 474.341 85.5952 473.446 85.5952C472.841 85.5952 472.296 85.7486 471.81 86.0554C471.333 86.3537 470.953 86.7756 470.672 87.321C470.391 87.858 470.25 88.4886 470.25 89.2131V101H464.804ZM510.232 92.6392V81.3636H515.678V101H510.45V97.4332H510.245C509.802 98.5838 509.065 99.5085 508.034 100.207C507.011 100.906 505.762 101.256 504.288 101.256C502.975 101.256 501.82 100.957 500.823 100.361C499.826 99.7642 499.046 98.9162 498.484 97.8168C497.93 96.7173 497.649 95.4006 497.64 93.8665V81.3636H503.086V92.8949C503.095 94.054 503.406 94.9702 504.019 95.6435C504.633 96.3168 505.455 96.6534 506.487 96.6534C507.143 96.6534 507.757 96.5043 508.328 96.206C508.899 95.8991 509.359 95.4474 509.708 94.8509C510.066 94.2543 510.241 93.517 510.232 92.6392Z" fill="black"/>
</svg>
